<?xml version="1.0" encoding="UTF-8" standalone="no"?>
<svg
   width="160.2"
   height="140"
   version="1.1"
   viewBox="0 0 42.386 37.042"
   id="svg53"
   sodipodi:docname="SINAN_DJ.svg"
   inkscape:version="1.4.2 (f4327f4, 2025-05-13)"
   xmlns:inkscape="http://www.inkscape.org/namespaces/inkscape"
   xmlns:sodipodi="http://sodipodi.sourceforge.net/DTD/sodipodi-0.dtd"
   xmlns="http://www.w3.org/2000/svg"
   xmlns:svg="http://www.w3.org/2000/svg">
  <defs
     id="defs53" />
  <sodipodi:namedview
     id="namedview53"
     pagecolor="#ffffff"
     bordercolor="#000000"
     borderopacity="0.25"
     inkscape:showpageshadow="2"
     inkscape:pageopacity="0.0"
     inkscape:pagecheckerboard="0"
     inkscape:deskcolor="#d1d1d1"
     inkscape:zoom="4.5357143"
     inkscape:cx="80.141732"
     inkscape:cy="73.307087"
     inkscape:window-width="1600"
     inkscape:window-height="837"
     inkscape:window-x="-8"
     inkscape:window-y="-8"
     inkscape:window-maximized="1"
     inkscape:current-layer="svg53" />
  <g
     transform="scale(.18424)"
     id="g53">
    <path
       transform="matrix(16.869 0 0 13.442 -1626 -2230.3)"
       d="m98.635 172.98c0.04497 4e-3 0.1349 0.0135 0.26982 0.0495s0.31477 0.0989 0.52163 0.13491c0.20686 0.036 0.44069 0.045 0.59359 0.09 0.15289 0.045 0.22484 0.12592 0.36875 0.18888 0.14391 0.063 0.35973 0.10792 0.65204 0.1349 0.2923 0.027 0.66104 0.036 0.95334 0.0405 0.2923 4e-3 0.50815 4e-3 0.82293 0.0135 0.31479 9e-3 0.72849 0.027 1.0163 0.045 0.28781 0.018 0.44969 0.036 0.49016 0.15294 0.0405 0.11694-0.0405 0.33276-0.25632 0.68802-0.21585 0.35526-0.56661 0.84991-1.0658 1.8572-0.49916 1.0073-1.1467 2.5272-1.8977 2.7611-0.75099 0.23383-1.6054-0.81842-2.154-1.5694s-0.79145-1.2007-0.87689-1.6234c-0.08544-0.42271-0.01349-0.81842 0.07645-1.1512 0.08994-0.33277 0.19786-0.60257 0.27431-0.89488 0.07645-0.2923 0.12142-0.60707 0.1439-0.76446 0.02249-0.15739 0.02249-0.15753 0.06745-0.15303z"
       fill="#ceb8a9"
       stroke="#ceb8a9"
       stroke-linecap="square"
       stroke-width=".26458"
       style="paint-order:markers fill stroke"
       id="path1" />
    <path
       d="m33.18 103.56c-1.5169 3.223-3.0349 6.446-4.2488 9.132-1.2139 2.6858-2.1238 4.8344-3.2618 8.3645-1.1379 3.53-2.5039 8.4412-3.5658 13.353-1.0619 4.9114-1.8209 9.8226-2.0478 13.967-0.22356 4.1438 0.07154 7.5204 0.30181 11.204 0.22356 3.6835 0.38006 7.674 0.4583 11.357 0.07165 3.6835 0.07165 7.0599 0.68186 9.3621 0.60362 2.3022 1.8209 3.53 3.2618 5.295 1.442 1.765 3.1109 4.0671 5.0838 5.5251 1.9729 1.4582 4.2488 2.072 6.6007 2.8394 2.3519 0.76745 4.7798 1.6883 8.3456 2.2255 3.5658 0.53693 8.2696 0.69145 12.366 0.38379 4.0968-0.3064 7.5866-1.074 10.242-1.6881 2.6559-0.61419 4.4757-1.074 6.2966-1.5348"
       fill="#ceb8a9"
       stroke="#ac8f7b"
       stroke-linecap="round"
       stroke-width="3.1745"
       style="paint-order:markers fill stroke"
       id="path2" />
    <path
       transform="matrix(11.935 0 0 11.813 -1145 -1938.7)"
       d="m102.02 180.25c-0.0731 0.0318-0.2194 0.0954-0.41019 0.14626-0.1908 0.0509-0.42609 0.089-0.65821 0.11448-0.23213 0.0254-0.46107 0.0382-0.70909 0.0223-0.24802-0.0159-0.51512-0.0604-0.71545-0.0954-0.20033-0.035-0.33389-0.0604-0.44517-0.0954-0.11128-0.035-0.20031-0.0795-0.25756-0.18761-0.05724-0.10812-0.08268-0.27982-0.10176-0.50559-0.01908-0.22576-0.0318-0.50558-0.0159-0.8013s0.06042-0.60733 0.08267-0.90624c0.02226-0.2989 0.02226-0.58507 0.03498-0.78222s0.03815-0.30526 0.10811-0.49923c0.06995-0.19396 0.18443-0.47378 0.28618-0.68683 0.10175-0.21304 0.19079-0.35931 0.32116-0.53738s0.30208-0.38793 0.48333-0.5342c0.18126-0.14628 0.37203-0.22895 0.566-0.32752 0.19397-0.0986 0.39111-0.21304 0.64549-0.26709 0.25438-0.054 0.566-0.0477 0.86172-6e-3 0.29572 0.0413 0.57554 0.11766 0.76633 0.18762 0.19078 0.07 0.29253 0.13354 0.39746 0.19396 0.10492 0.0604 0.21305 0.11765 0.38794 0.24803 0.17489 0.13037 0.41655 0.33387 0.62005 0.57236 0.20351 0.23848 0.36886 0.51194 0.4579 0.66456 0.089 0.15263 0.10177 0.18442 0.1463 0.26074 0.0445 0.0763 0.12084 0.19717 0.12721 0.2703 6e-3 0.0731-0.0573 0.0986-0.13675 0.13673-0.0795 0.0382-0.17487 0.089-0.24167 0.13356-0.0668 0.0445-0.1049 0.0826-0.17804 0.11444-0.0731 0.0318-0.18126 0.0572-0.3148 0.0986-0.13355 0.0413-0.29254 0.0986-0.46743 0.23531-0.17489 0.13673-0.36568 0.35295-0.48968 0.53419-0.12401 0.18124-0.18125 0.32752-0.20034 0.50241-0.0191 0.17489-2e-5 0.3784 0.019 0.48652 0.0191 0.10812 0.0381 0.12084-0.0191 0.15901-0.0572 0.0382-0.19079 0.10176-0.32434 0.18444-0.13355 0.0827-0.2671 0.18443-0.35932 0.28301-0.0922 0.0986-0.14308 0.19396-0.17171 0.27664-0.0286 0.0827-0.035 0.15262-0.035 0.21302-1e-5 0.0604 6e-3 0.11131 0.01 0.13674 3e-3 0.0254 3e-3 0.0253-0.0699 0.0571z"
       fill="#f2d5c1"
       stroke="#f2d5c1"
       stroke-linecap="square"
       stroke-width=".26458"
       style="paint-order:markers fill stroke"
       id="path3" />
    <path
       d="m33.18 151.9c-0.4583 5.3717-0.90543 10.743-1.366 16.345-0.4583 5.6021-0.90543 11.434-0.68186 15.194 0.22356 3.7602 1.1379 5.4485 1.366 6.9833 0.22356 1.5348-0.22356 2.916-1.7449 3.9136-1.5169 0.99797-4.0968 1.6115-7.5106 2.3789-3.4138 0.76745-7.6626 1.6883-10.849 2.0719-3.1869 0.38379-5.3107 0.23052-7.0556-0.61419-1.7449-0.84458-3.1109-2.379-3.5658-4.2974-0.4583-1.9185 0-4.2207 1.0619-6.2159 1.0619-1.9952 2.7308-3.6834 4.0968-4.3741 1.366-0.6902 2.4279-0.38379 3.1869 0.69019 0.76011 1.074 1.2139 2.916 1.1379 1.9184-0.07154-0.99797-0.68186-4.8345-1.29-8.0576-0.60362-3.223-1.2139-5.8321-1.366-8.2878-0.15649-2.4557 0.15649-4.7578 0.83836-7.06 0.68186-2.3022 1.7449-4.6043 2.5039-6.1392 0.76011-1.5348 1.2139-2.3021 2.1238-2.8393 0.90543-0.53693 2.2759-0.84458 3.2629-0.69019 0.98367 0.15326 1.5929 0.76745 2.1999 1.3813"
       fill="#ceb8a9"
       stroke="#ac8f7a"
       stroke-linecap="round"
       stroke-width="3.1745"
       style="paint-order:markers fill stroke"
       id="path4" />
    <path
       d="m76.441 22.276c0.74893-1.3022 1.5023-2.6044 1.9316-4.2866 0.43595-1.6822 0.54773-3.7442 0.0597-5.5349-0.48067-1.7907-1.556-3.3103-3.112-4.9381s-3.5938-3.3646-6.2765-4.5037c-2.6827-1.1391-6.0082-1.6824-8.9593-1.3022-2.951 0.38016-5.5253 1.6821-7.8325 3.9069-2.3072 2.2247-4.3449 5.372-5.4717 8.8448-1.1268 3.4728-1.3414 7.2712-1.0172 9.9844 0.32417 2.7131 1.1793 4.3405 2.1462 5.2093 0.96132 0.86749 2.0389 0.97618 2.1999 1.3025 0.15649 0.32581-0.59244 0.8675-2.1999 2.3873-1.6096 1.5196-4.0778 4.0156-6.4375 7.1085-2.3608 3.0931-4.6132 6.7828-6.6521 11.287-2.0389 4.5038-3.862 9.8216-5.6863 15.139l-3.8687 14.651c-0.86072 2.4961-1.717 4.9921-1.395 7.5426 0.32416 2.5503 1.8243 5.1549 3.7022 7.2712 1.8779 2.1163 4.1303 3.7441 6.8667 5.1549 2.7364 1.4108 5.9546 2.6051 9.1739 3.7442 3.2193 1.1391 6.4375 2.2252 9.6568 3.31l56.651 3.5813c5.9009-1.1933 11.802-2.3875 16.47-3.7984 4.6669-1.4108 8.1008-3.0386 10.784-5.0464 2.6827-2.0078 4.6132-4.3953 5.6326-7.1627 1.0172-2.7674 1.1268-5.9146 0.8607-7.9766-0.26827-2.0618-0.9166-3.0388-0.74893-3.5271 0.1565-0.48872 1.1268-0.48872 2.1451-1.5735 1.0172-1.0848 2.0925-3.2558 2.3608-5.0467 0.26827-1.7907-0.26828-3.2013-1.2341-4.0696-0.96132-0.86875-2.3608-1.1946-2.5754-1.8451-0.21238-0.65163 0.74893-1.6282 1.1256-5.3724 0.38006-3.7442 0.1565-10.256-0.53655-15.573-0.69303-5.3177-1.8779-9.4416-3.0583-13.566"
       fill="#ceb8a9"
       stroke="#ac8f7a"
       stroke-linecap="round"
       stroke-width="3.1745"
       style="paint-order:markers fill stroke"
       id="path5" />
    <path
       d="m133.1 40.183c2.7889-1.6278 5.579-3.2557 7.5642-4.7209 1.9852-1.4652 3.1645-2.7676 3.8632-4.4496 0.69303-1.6821 0.9166-3.7441 0.48065-5.9146-0.42477-2.1704-1.5023-4.4496-2.9499-6.4573-1.4487-2.0076-3.273-3.7447-5.7936-4.7209-2.5218-0.97744-5.74-1.1946-8.369-0.97744-2.6291 0.21725-4.6669 0.8675-6.6521 2.1704-1.9852 1.3024-3.9168 3.2558-5.0424 5.2635-1.1268 2.0077-1.4487 4.069-3.1634 4.8304-4.5059-2.7122-7.1875-3.7969-8.9581-4.5571-1.7695-0.76018-2.6291-1.1946-3.3266-2.0622-0.69304-0.8675-1.2329-2.1707-1.6096-3.3098-0.38005-1.1391-0.59244-2.1153-0.96132-3.2013-0.38005-1.086-0.9166-2.2789-1.7706-2.9848-0.86072-0.70597-2.0389-0.91708-3.0583-0.86888-1.0172 0.06136-1.8768 0.3789-2.5207 1.1391-0.64832 0.76019-1.0731 1.9538-1.1815 3.0929-0.10732 1.1403 0.10741 2.2309 0.10741 2.2792 0 0.04758-0.21238-0.92309-0.86071-2.0081-0.64833-1.0847-1.7181-2.2798-2.5754-2.9302-0.86072-0.65162-1.5012-0.75906-2.1451-0.10894-0.64832 0.65162-1.2877 2.0618-1.7706 3.7983-0.48066 1.7364-0.80483 3.7984-0.32417 5.2635 0.48065 1.4651 1.7706 2.3339 3.0583 3.2015l-8.5971 0.56836m0 0h-0.45831"
       fill="#ceb8a9"
       stroke="#ac8f7a"
       stroke-linecap="round"
       stroke-width="3.1745"
       style="paint-order:markers fill stroke"
       id="path6" />
    <path
       d="m116.04 34.648c-0.53655-2.7132-1.0731-5.426-1.1804-7.8137"
       fill="none"
       stroke="#ac8f7a"
       stroke-linecap="round"
       stroke-width="3.1745"
       style="paint-order:markers fill stroke"
       id="path7" />
    <path
       d="m112.82 76.973c2.4681-1.4108 4.9351-2.8217 8.691-3.8527 3.7547-1.0304 8.7983-1.6821 13.036-1.8991 4.2376-0.21725 7.6715 2.4e-4 10.408 0.54307 2.7364 0.54293 4.7742 1.4108 6.813 2.279"
       fill="none"
       stroke="#ac8f7a"
       stroke-linecap="round"
       stroke-width="3.1745"
       style="paint-order:markers fill stroke"
       id="path8" />
    <path
       d="m114.75 83.809c1.5023-0.54294 3.0047-1.0848 6.2228-1.1933 3.2193-0.10894 8.1544 0.21725 12.661 0.97744 4.5059 0.76018 8.5837 1.9536 11.427 3.039 2.8437 1.0847 4.4522 2.0618 6.0619 3.0385"
       fill="none"
       stroke="#ac8f7a"
       stroke-linecap="round"
       stroke-width="3.1745"
       style="paint-order:markers fill stroke"
       id="path9" />
    <path
       d="m85.457 26.833c-0.10742 1.3024-0.21238 2.6046 0.10742 3.5272 0.32416 0.9231 1.0731 1.4649 2.2524 1.7904 1.1793 0.32582 2.79 0.43438 3.9705 0.54307 1.1815 0.10893 1.9316 0.21725 2.6816 0.32581"
       fill="none"
       stroke="#ac8f7a"
       stroke-linecap="round"
       stroke-width="3.1745"
       style="paint-order:markers fill stroke"
       id="path10" />
    <path
       d="m72.099 78.437c1.7706-0.81453 5.3107-2.4418 7.5106-3.7985 2.1998-1.3565 3.0583-2.4417 2.7889-3.4185-0.26827-0.97743-1.6633-1.8449-3.5938-2.496-1.9316-0.65163-4.3986-1.0848-6.4375-1.3024-2.0389-0.21725-3.6485-0.21725-4.8826-0.21725-1.2341 0-2.0925 0-2.7353 0.43437-0.64832 0.43438-1.0731 1.3027-1.1279 2.4422-0.04771 1.1391 0.26827 2.5503 1.4487 4.1239 1.1804 1.5735 3.2182 3.3099 4.2376 4.1781 1.0172 0.86888 1.0172 0.86888 2.79 0.0614z"
       fill="none"
       stroke="#ac8f7a"
       stroke-linecap="round"
       stroke-width="3.1745"
       style="paint-order:markers fill stroke"
       id="path11" />
    <path
       d="m90.286 82.507c-0.53655 0.76019-1.0731 1.5188-1.9316 2.333-0.86072 0.81453-2.0389 1.6828-3.7558 2.0082-1.7158 0.32581-3.9693 0.10894-5.7936-0.10894-1.8243-0.21725-3.2193-0.43437-4.6132-0.97743-1.395-0.54307-2.7889-1.4107-3.4864-2.5503-0.69304-1.1391-0.69304-2.5504-1.395-2.3333-0.69304 0.21725-2.0925 2.062-3.4339 3.0388-1.3414 0.97619-2.6291 1.0848-4.023 1.1391-1.395 0.0476-2.8974 0.0476-4.3997-0.1629-1.5023-0.21725-3.0047-0.65163-4.0241-1.1391-1.0172-0.48872-1.5549-1.0304-2.0914-1.5734"
       fill="none"
       stroke="#ac8f7a"
       stroke-linecap="round"
       stroke-width="3.1745"
       style="paint-order:markers fill stroke"
       id="path12" />
    <path
       transform="matrix(11.93 0 0 12.067 -1144.4 -1983.6)"
       d="m100.97 171.39c0.063 5e-3 0.18887 0.0135 0.30129-0.0135s0.21135-0.0899 0.29229-0.16638c0.0809-0.0764 0.1439-0.16638 0.18888-0.15738 0.045 9e-3 0.072 0.11691 0.13943 0.20684 0.0674 0.0899 0.1754 0.1619 0.28782 0.19337 0.11242 0.0315 0.22934 0.0225 0.2878 0.0225 0.0585 0 0.0585 9e-3 0.054 0.14841-4e-3 0.13941-0.0135 0.40922-0.036 0.57562-0.0225 0.16641-0.0585 0.22935-0.17538 0.25181-0.11691 0.0225-0.31477 4e-3 -0.51714-0.0135-0.20236-0.018-0.40921-0.036-0.53964-0.054s-0.18435-0.036-0.23383-0.0675c-0.0495-0.0315-0.0944-0.0764-0.11238-0.16186-0.018-0.0855-9e-3 -0.21138-5e-3 -0.34628 4e-3 -0.13491 4e-3 -0.27881 4e-3 -0.35076 0-0.072-5e-5 -0.0719 0.0629-0.0674z"
       fill="#fefefe"
       stroke="#ac8f7a"
       stroke-linecap="square"
       stroke-width=".26458"
       style="paint-order:markers fill stroke"
       id="path13" />
    <path
       d="m69.041 82.181c-0.21238 2.062-0.42477 4.1241-0.42477 5.9689 0 1.845 0.21239 3.4728 0.42477 5.1007"
       fill="none"
       stroke="#ac8f7a"
       stroke-linecap="round"
       stroke-width="3.1745"
       style="paint-order:markers fill stroke"
       id="path14" />
    <path
       d="m60.028 86.739c-0.21238 1.6279-0.42477 3.2557-0.48066 4.6122-0.05958 1.3563 0.04773 2.4421 0.42477 3.2562 0.38006 0.81453 1.0172 1.3562 2.4145 1.7362 1.395 0.38003 3.5412 0.59728 5.6863 0.76019 2.1462 0.1629 4.2913 0.27147 5.6326 0.32581 1.3414 0.0614 1.8768 0.0614 2.4681-0.27147 0.59244-0.32581 1.2341-0.97618 1.556-2.0617 0.32417-1.0848 0.32417-2.6046 0.32417-4.1782v-4.8294"
       fill="none"
       stroke="#ac8f7a"
       stroke-linecap="round"
       stroke-width="3.1745"
       style="paint-order:markers fill stroke"
       id="path15" />
    <path
       d="m124.08 32.049c-0.86072-0.43438-1.717-0.8675-2.1999-1.9534-0.48065-1.086-0.59244-2.8217-0.53654-4.07 0.0597-1.2483 0.26827-2.0075 0.59244-2.6588 0.32417-0.65163 0.74893-1.1933 1.2877-0.92184 0.53655 0.27147 1.1793 1.3567 1.556 2.1707 0.38006 0.81453 0.48067 1.3559 0.69305 1.0304 0.21238-0.32456 0.53655-1.5194 1.233-2.1161 0.69304-0.59728 1.7706-0.59728 2.5754-0.43438 0.80483 0.16291 1.3414 0.48747 1.9852 0.43313 0.64834-0.0614 1.3939-0.48747 2.0914-0.16291 0.69304 0.32581 1.3414 1.4107 1.9852 2.496"
       fill="none"
       stroke="#ac8f7a"
       stroke-linecap="round"
       stroke-width="3.1745"
       style="paint-order:markers fill stroke"
       id="path16" />
    <path
       d="m67.11 12.52c-1.0731-0.54294-2.1462-1.0849-3.0047-1.3021-0.86072-0.21725-1.5023-0.10894-1.8779 0.48872-0.38006 0.59728-0.48066 1.6825-0.86072 2.0622-0.38006 0.38016-1.0172 0.06135-1.717-0.21725-0.69304-0.27147-1.4476-0.48872-1.9841 0.04758-0.53655 0.54306-0.86071 1.8451-1.0731 2.7133-0.21238 0.8675-0.32416 1.3026-0.96132 1.248-0.64833-0.06136-1.8243-0.59728-2.6291-0.81453-0.80482-0.21725-1.2341-0.10894-1.5023 0.59728-0.26828 0.70597-0.38006 2.0077-0.26828 3.4185 0.10742 1.411 0.42477 2.9303 0.74893 4.4496"
       fill="none"
       stroke="#ac8f7a"
       stroke-linecap="round"
       stroke-width="3.1745"
       style="paint-order:markers fill stroke"
       id="path17" />
    <path
       d="m92.002 48.171c1.0731-0.48872 3.2182-1.465 5.2034-1.7363 1.9852-0.27147 3.8095 0.16291 5.0424 0.92184 1.2341 0.76019 1.8779 1.845 2.4681 3.4186 0.59244 1.5737 1.1256 3.6355 1.2877 5.6974 0.1565 2.0621-0.0595 4.124-0.59243 6.2404-0.53655 2.1164-1.395 4.2867-2.3608 5.7517-0.96132 1.465-2.0389 2.2247-3.4876 2.7673-1.4487 0.54306-3.2718 0.8675-4.9888 0.75893-1.717-0.10893-3.3255-0.65162-4.5596-1.6822-1.2341-1.0317-2.0925-2.5503-2.6291-4.775-0.53655-2.2249-0.74893-5.155-0.48066-7.597 0.26828-2.4418 1.0172-4.3951 1.7706-5.8604 0.74893-1.4655 1.5012-2.4416 1.8768-2.9299 0.38005-0.48871 0.38005-0.48746 1.4498-0.97618z"
       fill="#ac8f7a"
       stroke="#ac8f7a"
       stroke-linecap="round"
       stroke-width="3.1745"
       style="paint-order:markers fill stroke"
       id="path18" />
    <path
       d="m51.234 43.465c1.1245-0.34873 3.3747-1.0462 5.3778-1.0631 2.0031-0.0119 3.7592 0.64436 4.8882 1.5541 1.1301 0.90982 1.6342 2.0685 2.0255 3.7045 0.39123 1.6361 0.67068 3.7496 0.57008 5.8157-0.0954 2.0662-0.55891 4.0847-1.3581 6.1164-0.79365 2.0317-1.9148 4.0762-3.0539 5.4073-1.139 1.3312-2.2982 1.9489-3.8028 2.3037-1.5046 0.35473-3.3546 0.44639-5.0436 0.1202-1.6901-0.32581-3.2193-1.068-4.3159-2.247-1.0955-1.1789-1.7594-2.7952-2.0165-5.0706-0.2571-2.2752-0.10742-5.2094 0.4583-7.5982 0.57008-2.3887 1.556-4.2313 2.4827-5.59 0.92778-1.3587 1.793-2.232 2.2256-2.6689 0.43595-0.43675 0.43595-0.4355 1.5593-0.78435z"
       fill="#ac8f7a"
       stroke="#ac8f7a"
       stroke-linecap="round"
       stroke-width="3.1745"
       style="paint-order:markers fill stroke"
       id="path19" />
    <path
       d="m95.377 50.777c0.22356-0.22326 0.65951-0.66965 1.1491-0.93749 0.49183-0.26784 1.0172-0.35837 1.4587-0.17856 0.44713 0.17856 0.79365 0.62508 0.52538 1.028-0.26828 0.40294-1.1502 0.76019-1.8131 0.80489-0.65951 0.0363-1.1066-0.22326-1.3257-0.35724-0.22356-0.13386-0.22356-0.13386 1.1e-4 -0.35837z"
       fill="#fffdfd"
       stroke="#fff"
       stroke-linecap="round"
       stroke-width="2.6151"
       style="paint-order:markers fill stroke"
       id="path20" />
    <path
       d="m91.311 55.665c0.13414-0.26183 0.41358-0.78435 0.69304-0.83619 0.27945-0.0614 0.54772 0.36563 0.63716 0.99309 0.0835 0.62745-0.0239 1.4649-0.19004 2.2497-0.16767 0.78548-0.39123 1.5169-0.52537 2.2493-0.13414 0.73365-0.19002 1.4642-0.33534 1.8826-0.13414 0.41873-0.3577 0.52378-0.54773 0.3138-0.19002-0.20874-0.3577-0.73252-0.43594-1.5688-0.0835-0.83632-0.0835-1.9879 0.0239-2.8772 0.10732-0.88929 0.33535-1.5169 0.43596-1.8308 0.1073-0.31379 0.1073-0.31379 0.24591-0.57675z"
       fill="#fffdfd"
       stroke="#fff"
       stroke-linecap="round"
       stroke-width="2.2353"
       style="paint-order:markers fill stroke"
       id="path21" />
    <path
       d="m51.962 47.107c0.24592-0.10894 0.72658-0.3173 1.1212-0.40433 0.40241-0.0851 0.7154-0.0476 0.96132 0.0238 0.2571 0.0726 0.4583 0.19184 0.50302 0.3451 0.04773 0.15326-0.07154 0.3451-0.29063 0.49961-0.21238 0.15327-0.52537 0.26909-0.84954 0.34522-0.32416 0.0726-0.67069 0.12021-0.93896 0.10894-0.26827-0.0119-0.46948-0.0726-0.63715-0.12546-0.16767-0.0614-0.31299-0.12021-0.32416-0.23053-0.01196-0.12021 0.09546-0.28837 0.15649-0.37402 0.04773-0.0851 0.04773-0.0851 0.30181-0.19308z"
       fill="none"
       stroke="#fff"
       stroke-linecap="round"
       stroke-width="1.9435"
       style="paint-order:markers fill stroke"
       id="path22" />
    <path
       d="m49.454 51.752c0.17885-0.23528 0.53655-0.70459 0.816-0.70835 0.27945-0.0119 0.48066 0.45379 0.4583 1.086-0.02381 0.63347-0.26827 1.4406-0.5589 2.1861-0.29063 0.74691-0.62598 1.431-0.88307 2.13-0.2571 0.69984-0.43595 1.4114-0.63715 1.8008-0.20121 0.38967-0.43595 0.45616-0.59244 0.216-0.15649-0.23766-0.23474-0.78198-0.17885-1.621 0.05958-0.8387 0.24592-1.9744 0.49184-2.8333 0.2571-0.85923 0.58126-1.4403 0.73776-1.7313 0.15649-0.29075 0.15649-0.29075 0.33534-0.52728z"
       fill="#fffdfd"
       stroke="#fff"
       stroke-linecap="round"
       stroke-width="2.2353"
       style="paint-order:markers fill stroke"
       id="path23" />
    <path
       transform="matrix(11.93 0 0 12.067 -1144.4 -1983.6)"
       d="m98.131 170.93c0.02698-0.19786 0.05396-0.39573 0.09893-0.57561 0.04497-0.17987 0.10793-0.34176 0.17088-0.50364"
       fill="#ac8f7a"
       stroke="#fafafa"
       stroke-linecap="square"
       stroke-width=".26458"
       style="paint-order:markers fill stroke"
       id="path24" />
    <path
       d="m27.84 74.048c-1.6096 0.10893-3.2193 0.21725-4.9351 0.21725-1.717 0-3.5401-0.10894-5.4717-0.0614-1.9316 0.0614-3.9693 0.27147-6.0082 0.48872"
       fill="none"
       stroke="#ac8f7a"
       stroke-linecap="round"
       stroke-width="3.1745"
       style="paint-order:markers fill stroke"
       id="path25" />
    <path
       d="m29.128 70.135c-1.395-1.0848-2.7901-2.1706-4.2376-2.9303-1.4487-0.76019-2.951-1.1933-4.4522-1.4652-1.5023-0.27146-3.0047-0.38015-4.1303-0.38015-1.1268 0-1.8779 0.10894-2.6291 0.21725"
       fill="none"
       stroke="#ac8f7a"
       stroke-linecap="round"
       stroke-width="3.1745"
       style="paint-order:markers fill stroke"
       id="path26" />
    <path
       d="m137.23 103.47c1.9729 5.6787 4.5886 15.59 6.1826 20.348 1.5929 4.7579 2.8068 8.5948 3.5658 14.964 0.76012 6.3694 1.0619 15.271 0.45831 21.717-0.60362 6.446-2.1238 10.436-5.6908 14.273-3.5658 3.837-9.1795 7.5203-13.049 9.4389-3.8699 1.9185-5.9937 2.0722-8.3456 3.2234-2.3519 1.1512-4.9318 3.2999-8.4976 5.0649-3.5658 1.765-8.1175 3.1463-12.215 4.2206-4.0968 1.074-7.7386 1.8418-10.773 2.379-3.0348 0.53692-5.4627 0.84458-7.5106 0.15326-2.049-0.69019-3.7178-2.379-4.8558-4.6812-1.1379-2.3022-1.7449-5.2183-0.98367-7.674 0.76011-2.4556 2.8828-4.4508 6.1457-6.0623 3.2629-1.6115 7.6626-2.8393 8.9526-3.1462 1.29-0.30641-0.52537 0.3064-1.8969 0.23052-1.366-0.0726-2.2759-0.84458-2.7308-2.4558-0.4583-1.6115-0.4583-4.0671 0-6.2158 0.45831-2.1486 1.366-3.9903 2.7308-5.9856 1.366-1.9952 3.1869-4.1439 5.3107-5.5252 2.1238-1.3813 4.5517-1.9952 6.9796-2.6092"
       fill="#ceb8a9"
       stroke="#ac8f7a"
       stroke-linecap="round"
       stroke-width="2.8641"
       style="paint-order:markers fill stroke"
       id="path27" />
    <path
       transform="matrix(10.984 0 0 13.899 -1047.2 -2301.5)"
       d="m100.42 173.38c1.5649 0.10792 3.1298 0.21585 4.6947 0.32377"
       fill="#ac8f7a"
       stroke="#ceb8a9"
       stroke-linecap="square"
       stroke-width=".34984"
       style="paint-order:markers fill stroke"
       id="path28" />
    <g
       id="yad_yamin"
       transform="matrix(11.93 0 0 12.067 -1144.4 -1983.6)"
       stroke="#ac8f7a"
       stroke-linecap="round">
      <path
         d="m105.67 174.69c-0.1249 0.33632-0.24979 0.67265-0.36334 0.8756-0.11355 0.20296-0.21574 0.27255-0.36904 0.37112-0.15328 0.0985-0.35766 0.22615-0.48257 0.23775-0.1249 0.0116-0.17032-0.0928-0.24411-0.18555-0.0739-0.0928-0.176-0.17396-0.28387-0.24935-0.10787-0.0754-0.22142-0.14496-0.32362-0.16236-0.10219-0.0174-0.19302 0.0174-0.23276-0.0406-0.0397-0.058-0.0283-0.20873 5e-3 -0.36531 0.0341-0.15657 0.0909-0.31893 0.176-0.49288 0.0851-0.17397 0.1987-0.35954 0.31225-0.45811 0.11355-0.0985 0.22708-0.11019 0.30657-0.18559 0.0794-0.0754 0.0709-0.26851 0.11637-0.40768"
         fill="#ceb8a9"
         stroke-width=".23871"
         style="paint-order:markers fill stroke"
         id="path29" />
      <path
         d="m104.44 176.29c-0.0636 0.10175-0.12719 0.20351-0.22259 0.22259-0.0954 0.0191-0.22258-0.0445-0.27981-0.0445-0.0572 0-0.0445 0.0636-0.1208 0.1717-0.0763 0.10812-0.24166 0.26075-0.33705 0.27983-0.0954 0.0191-0.12082-0.0954-0.13353-0.20987-0.0127-0.11447-0.0127-0.22894-0.07-0.27346-0.0572-0.0445-0.17172-0.0191-0.2544-6e-3 -0.0827 0.0127-0.13354 0.0127-0.12082-0.0445 0.0127-0.0572 0.089-0.17171 0.0954-0.25439 6e-3 -0.0827-0.0572-0.13354-0.14627-0.17806-0.089-0.0445-0.2035-0.0827-0.19713-0.12719 6e-3 -0.0445 0.13354-0.0954 0.25437-0.15263 0.12083-0.0572 0.23531-0.12084 0.34978-0.18443"
         fill="#f2d5c1"
         stroke-width=".26458"
         style="paint-order:markers fill stroke"
         id="path30" />
    </g>
    <g
       transform="matrix(11.93 0 0 12.067 -1144.4 -1983.6)"
       stroke="#ac8f7a"
       stroke-linecap="round"
       stroke-width=".26458"
       id="g32">
      <path
         d="m99.972 173.81c0.11447 0.15263 0.22894 0.30526 0.29254 0.52784 0.0636 0.22259 0.0763 0.51512 0.0763 0.75678 0 0.24167-0.0127 0.43246-0.0255 0.55965-0.0127 0.12719-0.0254 0.19078-0.0636 0.1717-0.0382-0.0191-0.10174-0.12083-0.22258-0.17807-0.12083-0.0572-0.29889-0.07-0.4388-0.0636-0.13991 6e-3 -0.24168 0.0318-0.34343 0.0763s-0.2035 0.10811-0.26073 0.18441c-0.05724 0.0763-0.06996 0.16536-0.13356 0.13356-0.0636-0.0318-0.17807-0.18442-0.24166-0.40065-0.0636-0.21623-0.07632-0.49604-0.03816-0.78222 0.03816-0.28619 0.12719-0.57872 0.21622-0.87126"
         fill="#ceb8a9"
         style="paint-order:markers fill stroke"
         id="path31" />
      <path
         d="m100.01 175.87c0.11447 0.0763 0.22895 0.15263 0.30526 0.24167 0.0763 0.089 0.11447 0.19078 0.10811 0.32434-6e-3 0.13356-0.0572 0.29889-0.10175 0.32433-0.0445 0.0255-0.0827-0.089-0.14626-0.17806-0.0636-0.089-0.15263-0.15263-0.19715-0.1272-0.04452 0.0254-0.04452 0.13991-0.04452 0.2671s0 0.2671-0.02544 0.30526c-0.02544 0.0382-0.07631-0.0254-0.15263-0.11447-0.07632-0.089-0.17807-0.20351-0.24168-0.27348-0.06361-0.07-0.08904-0.0954-0.1081-0.0191-0.01907 0.0763-0.03179 0.25439-0.06995 0.31163-0.03816 0.0572-0.10175-6e-3 -0.17171-0.10176-0.06996-0.0954-0.14627-0.22258-0.20351-0.34977-0.05724-0.12719-0.09539-0.25438-0.13355-0.38157"
         fill="#f2d5c1"
         style="paint-order:markers fill stroke"
         id="path32" />
    </g>
    <path
       d="m110.11 147.3c-0.90543-1.9951-1.8209-3.9905-2.7308-5.9856"
       fill="none"
       stroke="#ac8f7a"
       stroke-linecap="round"
       stroke-width="3.1745"
       style="paint-order:markers fill stroke"
       id="path33" />
    <path
       d="m87.805 122.43c-2.1238-1.2277-4.2488-2.4557-6.8276-3.3765-2.5799-0.92072-5.6136-1.5348-8.6496-1.8417-3.0348-0.30641-6.0697-0.30641-8.8005 0.23052-2.7308 0.53693-5.1587 1.6115-6.6767 2.8394-1.518 1.2279-2.1238 2.6091-2.7319 3.9905"
       fill="none"
       stroke="#ac8f7a"
       stroke-linecap="round"
       stroke-width="3.1745"
       style="paint-order:markers fill stroke"
       id="path34" />
    <g
       transform="matrix(11.93 0 0 12.067 -1144.4 -1983.6)"
       stroke="#ac8f7a"
       stroke-linecap="round"
       stroke-width=".26458"
       id="g52">
      <path
         d="m108.6 177.54c0.12083-0.0445 0.3625-0.13355 0.56601-0.24167 0.20351-0.10811 0.36885-0.2353 0.50877-0.35613 0.13991-0.12084 0.25438-0.23531 0.36249-0.37522s0.20987-0.30526 0.26074-0.45789c0.0509-0.15263 0.0509-0.29254 0.0827-0.48333 0.0318-0.19078 0.0954-0.43244 0.11447-0.69319 0.0191-0.26075-6e-3 -0.54055 0.0382-0.94757 0.0445-0.40702 0.15899-0.94121 0.30526-1.3673 0.14628-0.42609 0.32434-0.74406 0.51513-0.99208 0.19079-0.24803 0.39429-0.42609 0.62323-0.55964s0.48333-0.22259 0.69319-0.26074c0.20987-0.0382 0.37521-0.0254 0.566 0.0191s0.40702 0.12084 0.62961 0.28619c0.22258 0.16535 0.45152 0.41973 0.60415 0.64231 0.15262 0.22258 0.22894 0.41337 0.33705 0.68048 0.10811 0.2671 0.24802 0.61051 0.2671 1.0239 0.0191 0.41337-0.0827 0.89669-0.24166 1.3546-0.15899 0.45789-0.37521 0.89033-0.71228 1.2656-0.33706 0.37522-0.79493 0.69318-1.2846 1.0302s-1.0112 0.6932-1.5327 0.94122c-0.52148 0.24802-1.043 0.38793-1.4945 0.45152-0.45153 0.0636-0.8331 0.0508-1.1129 0.0826-0.27981 0.0318-0.45788 0.10811-0.48968 0.0254-0.0318-0.0827 0.0827-0.32434 0.15262-0.52148 0.0699-0.19714 0.0954-0.34979 0.1081-0.4261 0.0127-0.0763 0.0127-0.0763 0.13355-0.12082z"
         fill="#f2d5c1"
         style="paint-order:markers fill stroke"
         id="path35" />
      <path
         d="m114.59 172.13c-1.1193-0.0127-2.2386-0.0255-3.3578-0.0382"
         fill="none"
         style="paint-order:markers fill stroke"
         id="path36" />
      <path
         d="m115.08 173.43c-1.4754 0.10175-2.9508 0.20351-4.4262 0.30526"
         fill="none"
         style="paint-order:markers fill stroke"
         id="path37" />
      <path
         d="m113.17 170.98c0.27982 0.39429 0.55964 0.78858 0.87126 1.2656s0.65503 1.0366 0.99845 1.5962"
         fill="none"
         style="paint-order:markers fill stroke"
         id="path38" />
      <path
         d="m114.89 174.8c-1.0048 0.0382-2.0096 0.0763-2.7473 0.11447-0.73771 0.0382-1.2083 0.0763-1.6789 0.11447"
         fill="none"
         style="paint-order:markers fill stroke"
         id="path39" />
      <path
         d="m114.17 176.06c-0.62324 0.0382-1.2465 0.0763-1.8824 0.10811-0.63597 0.0318-1.2846 0.0572-1.9333 0.0827"
         fill="none"
         style="paint-order:markers fill stroke"
         id="path40" />
      <path
         d="m111.8 177.7c-0.35614-0.12719-0.71228-0.25438-1.1129-0.31798-0.40066-0.0636-0.84582-0.0636-1.291-0.0636"
         fill="none"
         style="paint-order:markers fill stroke"
         id="path41" />
      <path
         d="m110.47 178.31c-0.34342-0.10175-0.68683-0.20351-0.99845-0.27346-0.31163-0.07-0.59144-0.10811-0.87126-0.14627"
         fill="none"
         style="paint-order:markers fill stroke"
         id="path42" />
      <path
         d="m112.22 170.98c0.38157 0.48332 0.76315 0.96665 1.202 1.6026s0.93485 1.4245 1.4309 2.2131"
         fill="none"
         style="paint-order:markers fill stroke"
         id="path43" />
      <path
         d="m111.76 171.48c0.90306 1.3737 1.8061 2.7473 2.7092 4.121"
         fill="none"
         style="paint-order:markers fill stroke"
         id="path44" />
      <path
         d="m111.27 171.9c0.95394 1.4373 1.9079 2.8745 2.8618 4.3118"
         fill="none"
         style="paint-order:markers fill stroke"
         id="path45" />
      <path
         d="m110.85 172.7c0.55964 0.80131 1.1193 1.6026 1.5454 2.2831 0.4261 0.68048 0.71863 1.2401 1.0112 1.7998"
         fill="none"
         style="paint-order:markers fill stroke"
         id="path46" />
      <path
         d="m110.62 173.81c0.25438 0.31797 0.50876 0.63595 0.69955 0.90942 0.19079 0.27346 0.31798 0.5024 0.52785 0.90941 0.20986 0.40702 0.5024 0.99209 0.79494 1.5772"
         fill="none"
         style="paint-order:markers fill stroke"
         id="path47" />
      <path
         d="m111.88 177.55c-0.20351-0.41973-0.40701-0.83946-0.61688-1.2783s-0.42609-0.89669-0.64231-1.3546"
         fill="none"
         style="paint-order:markers fill stroke"
         id="path48" />
      <path
         d="m111.04 178.16c-0.10175-0.40701-0.20351-0.81402-0.29254-1.1129-0.089-0.29889-0.16535-0.48969-0.24166-0.68047"
         fill="none"
         style="paint-order:markers fill stroke"
         id="path49" />
      <path
         d="m110.2 178.46c-0.0636-0.34342-0.12719-0.68683-0.15899-0.94757-0.0318-0.26075-0.0318-0.43881-0.0318-0.61688"
         fill="none"
         style="paint-order:markers fill stroke"
         id="path50" />
      <path
         d="m109.44 178.58c-0.0509-0.29254-0.10175-0.58508-0.13356-0.81402-0.0318-0.22895-0.0445-0.39428-0.0573-0.55964"
         fill="none"
         style="paint-order:markers fill stroke"
         id="path51" />
      <path
         d="m108.82 178.58c0.0127-0.25438 0.0255-0.50876 0.0191-0.6741-6e-3 -0.16534-0.0318-0.24169-0.0572-0.31799"
         fill="none"
         style="paint-order:markers fill stroke"
         id="path52" />
    </g>
  </g>
</svg>
