<svg width="89.117" height="70.928" version="1.1" viewBox="0 0 23.579 18.766" xmlns="http://www.w3.org/2000/svg">
	<g id="sinan_wassat_fawq" transform="matrix(.99998 0 0 .99998 -141.24 -44.31)">
		<g transform="matrix(.74867 .81382 -.82316 .75726 220.23 -163.39)" stroke="#ac8f7a" stroke-linecap="round" stroke-width=".26458">
			<path d="m108.6 177.54c0.12083-0.0445 0.3625-0.13355 0.56601-0.24167 0.20351-0.10811 0.36885-0.2353 0.50877-0.35613 0.13991-0.12084 0.25438-0.23531 0.36249-0.37522s0.20987-0.30526 0.26074-0.45789c0.0509-0.15263 0.0509-0.29254 0.0827-0.48333 0.0318-0.19078 0.0954-0.43244 0.11447-0.69319 0.0191-0.26075-6e-3 -0.54055 0.0382-0.94757 0.0445-0.40702 0.15899-0.94121 0.30526-1.3673 0.14628-0.42609 0.32434-0.74406 0.51513-0.99208 0.19079-0.24803 0.39429-0.42609 0.62323-0.55964s0.48333-0.22259 0.69319-0.26074c0.20987-0.0382 0.37521-0.0254 0.566 0.0191s0.40702 0.12084 0.62961 0.28619c0.22258 0.16535 0.45152 0.41973 0.60415 0.64231 0.15262 0.22258 0.22894 0.41337 0.33705 0.68048 0.10811 0.2671 0.24802 0.61051 0.2671 1.0239 0.0191 0.41337-0.0827 0.89669-0.24166 1.3546-0.15899 0.45789-0.37521 0.89033-0.71228 1.2656-0.33706 0.37522-0.79493 0.69318-1.2846 1.0302s-1.0112 0.6932-1.5327 0.94122c-0.52148 0.24802-1.043 0.38793-1.4945 0.45152-0.45153 0.0636-0.8331 0.0508-1.1129 0.0826-0.27981 0.0318-0.45788 0.10811-0.48968 0.0254-0.0318-0.0827 0.0827-0.32434 0.15262-0.52148 0.0699-0.19714 0.0954-0.34979 0.1081-0.4261 0.0127-0.0763 0.0127-0.0763 0.13355-0.12082z" fill="#f2d5c1" style="paint-order:markers fill stroke"/>
			<path d="m114.59 172.13c-1.1193-0.0127-2.2386-0.0255-3.3578-0.0382" fill="none" style="paint-order:markers fill stroke"/>
			<path d="m115.08 173.43c-1.4754 0.10175-2.9508 0.20351-4.4262 0.30526" fill="none" style="paint-order:markers fill stroke"/>
			<path d="m113.17 170.98c0.27982 0.39429 0.55964 0.78858 0.87126 1.2656s0.65503 1.0366 0.99845 1.5962" fill="none" style="paint-order:markers fill stroke"/>
			<path d="m114.89 174.8c-1.0048 0.0382-2.0096 0.0763-2.7473 0.11447-0.73771 0.0382-1.2083 0.0763-1.6789 0.11447" fill="none" style="paint-order:markers fill stroke"/>
			<path d="m114.17 176.06c-0.62324 0.0382-1.2465 0.0763-1.8824 0.10811-0.63597 0.0318-1.2846 0.0572-1.9333 0.0827" fill="none" style="paint-order:markers fill stroke"/>
			<path d="m111.8 177.7c-0.35614-0.12719-0.71228-0.25438-1.1129-0.31798-0.40066-0.0636-0.84582-0.0636-1.291-0.0636" fill="none" style="paint-order:markers fill stroke"/>
			<path d="m110.47 178.31c-0.34342-0.10175-0.68683-0.20351-0.99845-0.27346-0.31163-0.07-0.59144-0.10811-0.87126-0.14627" fill="none" style="paint-order:markers fill stroke"/>
			<path d="m112.22 170.98c0.38157 0.48332 0.76315 0.96665 1.202 1.6026s0.93485 1.4245 1.4309 2.2131" fill="none" style="paint-order:markers fill stroke"/>
			<path d="m111.76 171.48c0.90306 1.3737 1.8061 2.7473 2.7092 4.121" fill="none" style="paint-order:markers fill stroke"/>
			<path d="m111.27 171.9c0.95394 1.4373 1.9079 2.8745 2.8618 4.3118" fill="none" style="paint-order:markers fill stroke"/>
			<path d="m110.85 172.7c0.55964 0.80131 1.1193 1.6026 1.5454 2.2831 0.4261 0.68048 0.71863 1.2401 1.0112 1.7998" fill="none" style="paint-order:markers fill stroke"/>
			<path d="m110.62 173.81c0.25438 0.31797 0.50876 0.63595 0.69955 0.90942 0.19079 0.27346 0.31798 0.5024 0.52785 0.90941 0.20986 0.40702 0.5024 0.99209 0.79494 1.5772" fill="none" style="paint-order:markers fill stroke"/>
			<path d="m111.88 177.55c-0.20351-0.41973-0.40701-0.83946-0.61688-1.2783s-0.42609-0.89669-0.64231-1.3546" fill="none" style="paint-order:markers fill stroke"/>
			<path d="m111.04 178.16c-0.10175-0.40701-0.20351-0.81402-0.29254-1.1129-0.089-0.29889-0.16535-0.48969-0.24166-0.68047" fill="none" style="paint-order:markers fill stroke"/>
			<path d="m110.2 178.46c-0.0636-0.34342-0.12719-0.68683-0.15899-0.94757-0.0318-0.26075-0.0318-0.43881-0.0318-0.61688" fill="none" style="paint-order:markers fill stroke"/>
			<path d="m109.44 178.58c-0.0509-0.29254-0.10175-0.58508-0.13356-0.81402-0.0318-0.22895-0.0445-0.39428-0.0573-0.55964" fill="none" style="paint-order:markers fill stroke"/>
			<path d="m108.82 178.58c0.0127-0.25438 0.0255-0.50876 0.0191-0.6741-6e-3 -0.16534-0.0318-0.24169-0.0572-0.31799" fill="none" style="paint-order:markers fill stroke"/>
			<animate attributeName="opacity" begin="0s" dur="1s" repeatCount="indefinite" values="1;0;0;0;0;1;0;0;0;0"/>
		</g>
		<g transform="matrix(.93815 .58538 -.5921 .94893 158.98 -172.45)" stroke="#ac8f7a" stroke-linecap="round" stroke-width=".26458">
			<path d="m108.6 177.54c0.12083-0.0445 0.3625-0.13355 0.56601-0.24167 0.20351-0.10811 0.36885-0.2353 0.50877-0.35613 0.13991-0.12084 0.25438-0.23531 0.36249-0.37522s0.20987-0.30526 0.26074-0.45789c0.0509-0.15263 0.0509-0.29254 0.0827-0.48333 0.0318-0.19078 0.0954-0.43244 0.11447-0.69319 0.0191-0.26075-6e-3 -0.54055 0.0382-0.94757 0.0445-0.40702 0.15899-0.94121 0.30526-1.3673 0.14628-0.42609 0.32434-0.74406 0.51513-0.99208 0.19079-0.24803 0.39429-0.42609 0.62323-0.55964s0.48333-0.22259 0.69319-0.26074c0.20987-0.0382 0.37521-0.0254 0.566 0.0191s0.40702 0.12084 0.62961 0.28619c0.22258 0.16535 0.45152 0.41973 0.60415 0.64231 0.15262 0.22258 0.22894 0.41337 0.33705 0.68048 0.10811 0.2671 0.24802 0.61051 0.2671 1.0239 0.0191 0.41337-0.0827 0.89669-0.24166 1.3546-0.15899 0.45789-0.37521 0.89033-0.71228 1.2656-0.33706 0.37522-0.79493 0.69318-1.2846 1.0302s-1.0112 0.6932-1.5327 0.94122c-0.52148 0.24802-1.043 0.38793-1.4945 0.45152-0.45153 0.0636-0.8331 0.0508-1.1129 0.0826-0.27981 0.0318-0.45788 0.10811-0.48968 0.0254-0.0318-0.0827 0.0827-0.32434 0.15262-0.52148 0.0699-0.19714 0.0954-0.34979 0.1081-0.4261 0.0127-0.0763 0.0127-0.0763 0.13355-0.12082z" fill="#f2d5c1" style="paint-order:markers fill stroke"/>
			<path d="m114.59 172.13c-1.1193-0.0127-2.2386-0.0255-3.3578-0.0382" fill="none" style="paint-order:markers fill stroke"/>
			<path d="m115.08 173.43c-1.4754 0.10175-2.9508 0.20351-4.4262 0.30526" fill="none" style="paint-order:markers fill stroke"/>
			<path d="m113.17 170.98c0.27982 0.39429 0.55964 0.78858 0.87126 1.2656s0.65503 1.0366 0.99845 1.5962" fill="none" style="paint-order:markers fill stroke"/>
			<path d="m114.89 174.8c-1.0048 0.0382-2.0096 0.0763-2.7473 0.11447-0.73771 0.0382-1.2083 0.0763-1.6789 0.11447" fill="none" style="paint-order:markers fill stroke"/>
			<path d="m114.17 176.06c-0.62324 0.0382-1.2465 0.0763-1.8824 0.10811-0.63597 0.0318-1.2846 0.0572-1.9333 0.0827" fill="none" style="paint-order:markers fill stroke"/>
			<path d="m111.8 177.7c-0.35614-0.12719-0.71228-0.25438-1.1129-0.31798-0.40066-0.0636-0.84582-0.0636-1.291-0.0636" fill="none" style="paint-order:markers fill stroke"/>
			<path d="m110.47 178.31c-0.34342-0.10175-0.68683-0.20351-0.99845-0.27346-0.31163-0.07-0.59144-0.10811-0.87126-0.14627" fill="none" style="paint-order:markers fill stroke"/>
			<path d="m112.22 170.98c0.38157 0.48332 0.76315 0.96665 1.202 1.6026s0.93485 1.4245 1.4309 2.2131" fill="none" style="paint-order:markers fill stroke"/>
			<path d="m111.76 171.48c0.90306 1.3737 1.8061 2.7473 2.7092 4.121" fill="none" style="paint-order:markers fill stroke"/>
			<path d="m111.27 171.9c0.95394 1.4373 1.9079 2.8745 2.8618 4.3118" fill="none" style="paint-order:markers fill stroke"/>
			<path d="m110.85 172.7c0.55964 0.80131 1.1193 1.6026 1.5454 2.2831 0.4261 0.68048 0.71863 1.2401 1.0112 1.7998" fill="none" style="paint-order:markers fill stroke"/>
			<path d="m110.62 173.81c0.25438 0.31797 0.50876 0.63595 0.69955 0.90942 0.19079 0.27346 0.31798 0.5024 0.52785 0.90941 0.20986 0.40702 0.5024 0.99209 0.79494 1.5772" fill="none" style="paint-order:markers fill stroke"/>
			<path d="m111.88 177.55c-0.20351-0.41973-0.40701-0.83946-0.61688-1.2783s-0.42609-0.89669-0.64231-1.3546" fill="none" style="paint-order:markers fill stroke"/>
			<path d="m111.04 178.16c-0.10175-0.40701-0.20351-0.81402-0.29254-1.1129-0.089-0.29889-0.16535-0.48969-0.24166-0.68047" fill="none" style="paint-order:markers fill stroke"/>
			<path d="m110.2 178.46c-0.0636-0.34342-0.12719-0.68683-0.15899-0.94757-0.0318-0.26075-0.0318-0.43881-0.0318-0.61688" fill="none" style="paint-order:markers fill stroke"/>
			<path d="m109.44 178.58c-0.0509-0.29254-0.10175-0.58508-0.13356-0.81402-0.0318-0.22895-0.0445-0.39428-0.0573-0.55964" fill="none" style="paint-order:markers fill stroke"/>
			<path d="m108.82 178.58c0.0127-0.25438 0.0255-0.50876 0.0191-0.6741-6e-3 -0.16534-0.0318-0.24169-0.0572-0.31799" fill="none" style="paint-order:markers fill stroke"/>
			<animate attributeName="opacity" begin="0s" dur="1s" repeatCount="indefinite" values="0;1;0;0;0;0;1;0;0;0"/>
		</g>
		<g transform="matrix(1.0453 .36074 -.36489 1.0573 106.93 -167.68)" stroke="#ac8f7a" stroke-linecap="round" stroke-width=".26458">
			<path d="m108.6 177.54c0.12083-0.0445 0.3625-0.13355 0.56601-0.24167 0.20351-0.10811 0.36885-0.2353 0.50877-0.35613 0.13991-0.12084 0.25438-0.23531 0.36249-0.37522s0.20987-0.30526 0.26074-0.45789c0.0509-0.15263 0.0509-0.29254 0.0827-0.48333 0.0318-0.19078 0.0954-0.43244 0.11447-0.69319 0.0191-0.26075-6e-3 -0.54055 0.0382-0.94757 0.0445-0.40702 0.15899-0.94121 0.30526-1.3673 0.14628-0.42609 0.32434-0.74406 0.51513-0.99208 0.19079-0.24803 0.39429-0.42609 0.62323-0.55964s0.48333-0.22259 0.69319-0.26074c0.20987-0.0382 0.37521-0.0254 0.566 0.0191s0.40702 0.12084 0.62961 0.28619c0.22258 0.16535 0.45152 0.41973 0.60415 0.64231 0.15262 0.22258 0.22894 0.41337 0.33705 0.68048 0.10811 0.2671 0.24802 0.61051 0.2671 1.0239 0.0191 0.41337-0.0827 0.89669-0.24166 1.3546-0.15899 0.45789-0.37521 0.89033-0.71228 1.2656-0.33706 0.37522-0.79493 0.69318-1.2846 1.0302s-1.0112 0.6932-1.5327 0.94122c-0.52148 0.24802-1.043 0.38793-1.4945 0.45152-0.45153 0.0636-0.8331 0.0508-1.1129 0.0826-0.27981 0.0318-0.45788 0.10811-0.48968 0.0254-0.0318-0.0827 0.0827-0.32434 0.15262-0.52148 0.0699-0.19714 0.0954-0.34979 0.1081-0.4261 0.0127-0.0763 0.0127-0.0763 0.13355-0.12082z" fill="#f2d5c1" style="paint-order:markers fill stroke"/>
			<path d="m114.59 172.13c-1.1193-0.0127-2.2386-0.0255-3.3578-0.0382" fill="none" style="paint-order:markers fill stroke"/>
			<path d="m115.08 173.43c-1.4754 0.10175-2.9508 0.20351-4.4262 0.30526" fill="none" style="paint-order:markers fill stroke"/>
			<path d="m113.17 170.98c0.27982 0.39429 0.55964 0.78858 0.87126 1.2656s0.65503 1.0366 0.99845 1.5962" fill="none" style="paint-order:markers fill stroke"/>
			<path d="m114.89 174.8c-1.0048 0.0382-2.0096 0.0763-2.7473 0.11447-0.73771 0.0382-1.2083 0.0763-1.6789 0.11447" fill="none" style="paint-order:markers fill stroke"/>
			<path d="m114.17 176.06c-0.62324 0.0382-1.2465 0.0763-1.8824 0.10811-0.63597 0.0318-1.2846 0.0572-1.9333 0.0827" fill="none" style="paint-order:markers fill stroke"/>
			<path d="m111.8 177.7c-0.35614-0.12719-0.71228-0.25438-1.1129-0.31798-0.40066-0.0636-0.84582-0.0636-1.291-0.0636" fill="none" style="paint-order:markers fill stroke"/>
			<path d="m110.47 178.31c-0.34342-0.10175-0.68683-0.20351-0.99845-0.27346-0.31163-0.07-0.59144-0.10811-0.87126-0.14627" fill="none" style="paint-order:markers fill stroke"/>
			<path d="m112.22 170.98c0.38157 0.48332 0.76315 0.96665 1.202 1.6026s0.93485 1.4245 1.4309 2.2131" fill="none" style="paint-order:markers fill stroke"/>
			<path d="m111.76 171.48c0.90306 1.3737 1.8061 2.7473 2.7092 4.121" fill="none" style="paint-order:markers fill stroke"/>
			<path d="m111.27 171.9c0.95394 1.4373 1.9079 2.8745 2.8618 4.3118" fill="none" style="paint-order:markers fill stroke"/>
			<path d="m110.85 172.7c0.55964 0.80131 1.1193 1.6026 1.5454 2.2831 0.4261 0.68048 0.71863 1.2401 1.0112 1.7998" fill="none" style="paint-order:markers fill stroke"/>
			<path d="m110.62 173.81c0.25438 0.31797 0.50876 0.63595 0.69955 0.90942 0.19079 0.27346 0.31798 0.5024 0.52785 0.90941 0.20986 0.40702 0.5024 0.99209 0.79494 1.5772" fill="none" style="paint-order:markers fill stroke"/>
			<path d="m111.88 177.55c-0.20351-0.41973-0.40701-0.83946-0.61688-1.2783s-0.42609-0.89669-0.64231-1.3546" fill="none" style="paint-order:markers fill stroke"/>
			<path d="m111.04 178.16c-0.10175-0.40701-0.20351-0.81402-0.29254-1.1129-0.089-0.29889-0.16535-0.48969-0.24166-0.68047" fill="none" style="paint-order:markers fill stroke"/>
			<path d="m110.2 178.46c-0.0636-0.34342-0.12719-0.68683-0.15899-0.94757-0.0318-0.26075-0.0318-0.43881-0.0318-0.61688" fill="none" style="paint-order:markers fill stroke"/>
			<path d="m109.44 178.58c-0.0509-0.29254-0.10175-0.58508-0.13356-0.81402-0.0318-0.22895-0.0445-0.39428-0.0573-0.55964" fill="none" style="paint-order:markers fill stroke"/>
			<path d="m108.82 178.58c0.0127-0.25438 0.0255-0.50876 0.0191-0.6741-6e-3 -0.16534-0.0318-0.24169-0.0572-0.31799" fill="none" style="paint-order:markers fill stroke"/>
			<animate attributeName="opacity" begin="0s" dur="1s" repeatCount="indefinite" values="0;0;1;0;0;0;0;1;0;0"/>
		</g>
		<g transform="matrix(1.0642 .30044 -.30389 1.0764 93.272 -164.8)" stroke="#ac8f7a" stroke-linecap="round" stroke-width=".26458">
			<path d="m108.6 177.54c0.12083-0.0445 0.3625-0.13355 0.56601-0.24167 0.20351-0.10811 0.36885-0.2353 0.50877-0.35613 0.13991-0.12084 0.25438-0.23531 0.36249-0.37522s0.20987-0.30526 0.26074-0.45789c0.0509-0.15263 0.0509-0.29254 0.0827-0.48333 0.0318-0.19078 0.0954-0.43244 0.11447-0.69319 0.0191-0.26075-6e-3 -0.54055 0.0382-0.94757 0.0445-0.40702 0.15899-0.94121 0.30526-1.3673 0.14628-0.42609 0.32434-0.74406 0.51513-0.99208 0.19079-0.24803 0.39429-0.42609 0.62323-0.55964s0.48333-0.22259 0.69319-0.26074c0.20987-0.0382 0.37521-0.0254 0.566 0.0191s0.40702 0.12084 0.62961 0.28619c0.22258 0.16535 0.45152 0.41973 0.60415 0.64231 0.15262 0.22258 0.22894 0.41337 0.33705 0.68048 0.10811 0.2671 0.24802 0.61051 0.2671 1.0239 0.0191 0.41337-0.0827 0.89669-0.24166 1.3546-0.15899 0.45789-0.37521 0.89033-0.71228 1.2656-0.33706 0.37522-0.79493 0.69318-1.2846 1.0302s-1.0112 0.6932-1.5327 0.94122c-0.52148 0.24802-1.043 0.38793-1.4945 0.45152-0.45153 0.0636-0.8331 0.0508-1.1129 0.0826-0.27981 0.0318-0.45788 0.10811-0.48968 0.0254-0.0318-0.0827 0.0827-0.32434 0.15262-0.52148 0.0699-0.19714 0.0954-0.34979 0.1081-0.4261 0.0127-0.0763 0.0127-0.0763 0.13355-0.12082z" fill="#f2d5c1" style="paint-order:markers fill stroke"/>
			<path d="m114.59 172.13c-1.1193-0.0127-2.2386-0.0255-3.3578-0.0382" fill="none" style="paint-order:markers fill stroke"/>
			<path d="m115.08 173.43c-1.4754 0.10175-2.9508 0.20351-4.4262 0.30526" fill="none" style="paint-order:markers fill stroke"/>
			<path d="m113.17 170.98c0.27982 0.39429 0.55964 0.78858 0.87126 1.2656s0.65503 1.0366 0.99845 1.5962" fill="none" style="paint-order:markers fill stroke"/>
			<path d="m114.89 174.8c-1.0048 0.0382-2.0096 0.0763-2.7473 0.11447-0.73771 0.0382-1.2083 0.0763-1.6789 0.11447" fill="none" style="paint-order:markers fill stroke"/>
			<path d="m114.17 176.06c-0.62324 0.0382-1.2465 0.0763-1.8824 0.10811-0.63597 0.0318-1.2846 0.0572-1.9333 0.0827" fill="none" style="paint-order:markers fill stroke"/>
			<path d="m111.8 177.7c-0.35614-0.12719-0.71228-0.25438-1.1129-0.31798-0.40066-0.0636-0.84582-0.0636-1.291-0.0636" fill="none" style="paint-order:markers fill stroke"/>
			<path d="m110.47 178.31c-0.34342-0.10175-0.68683-0.20351-0.99845-0.27346-0.31163-0.07-0.59144-0.10811-0.87126-0.14627" fill="none" style="paint-order:markers fill stroke"/>
			<path d="m112.22 170.98c0.38157 0.48332 0.76315 0.96665 1.202 1.6026s0.93485 1.4245 1.4309 2.2131" fill="none" style="paint-order:markers fill stroke"/>
			<path d="m111.76 171.48c0.90306 1.3737 1.8061 2.7473 2.7092 4.121" fill="none" style="paint-order:markers fill stroke"/>
			<path d="m111.27 171.9c0.95394 1.4373 1.9079 2.8745 2.8618 4.3118" fill="none" style="paint-order:markers fill stroke"/>
			<path d="m110.85 172.7c0.55964 0.80131 1.1193 1.6026 1.5454 2.2831 0.4261 0.68048 0.71863 1.2401 1.0112 1.7998" fill="none" style="paint-order:markers fill stroke"/>
			<path d="m110.62 173.81c0.25438 0.31797 0.50876 0.63595 0.69955 0.90942 0.19079 0.27346 0.31798 0.5024 0.52785 0.90941 0.20986 0.40702 0.5024 0.99209 0.79494 1.5772" fill="none" style="paint-order:markers fill stroke"/>
			<path d="m111.88 177.55c-0.20351-0.41973-0.40701-0.83946-0.61688-1.2783s-0.42609-0.89669-0.64231-1.3546" fill="none" style="paint-order:markers fill stroke"/>
			<path d="m111.04 178.16c-0.10175-0.40701-0.20351-0.81402-0.29254-1.1129-0.089-0.29889-0.16535-0.48969-0.24166-0.68047" fill="none" style="paint-order:markers fill stroke"/>
			<path d="m110.2 178.46c-0.0636-0.34342-0.12719-0.68683-0.15899-0.94757-0.0318-0.26075-0.0318-0.43881-0.0318-0.61688" fill="none" style="paint-order:markers fill stroke"/>
			<path d="m109.44 178.58c-0.0509-0.29254-0.10175-0.58508-0.13356-0.81402-0.0318-0.22895-0.0445-0.39428-0.0573-0.55964" fill="none" style="paint-order:markers fill stroke"/>
			<path d="m108.82 178.58c0.0127-0.25438 0.0255-0.50876 0.0191-0.6741-6e-3 -0.16534-0.0318-0.24169-0.0572-0.31799" fill="none" style="paint-order:markers fill stroke"/>
			<animate attributeName="opacity" begin="0s" dur="1s" repeatCount="indefinite" values="0;0;0;1;0;0;0;0;1;0"/>
		</g>
		<path d="m144.75 53.107c0.0703 5e-3 0.21093 0.01682 0.4219 0.06168 0.21096 0.04485 0.49217 0.12322 0.81562 0.16809 0.32345 0.04485 0.68906 0.05607 0.92814 0.11214 0.23906 0.05607 0.35156 0.15689 0.57658 0.23534 0.22502 0.0785 0.56247 0.13446 1.0195 0.16808 0.45704 0.03364 1.0336 0.04486 1.4906 0.05046 0.45704 5e-3 0.79454 5e-3 1.2867 0.01682 0.49221 0.01121 1.1391 0.03364 1.5891 0.05607 0.45002 0.02243 0.70313 0.04485 0.76641 0.19056 0.0633 0.1457-0.0633 0.4146-0.40078 0.85724-0.33751 0.44264-0.88596 1.0589-1.6665 2.314-0.78049 1.255-1.793 3.1488-2.9672 3.4402-1.1742 0.29134-2.5102-1.0197-3.368-1.9554-0.85779-0.93568-1.2375-1.496-1.3711-2.0227-0.13359-0.52668-0.0211-1.0197 0.11954-1.4343 0.14063-0.41462 0.30938-0.75077 0.42891-1.115 0.11954-0.36419 0.18986-0.75638 0.22501-0.95248 0.0352-0.1961 0.0352-0.19628 0.10546-0.19067z" fill="#ceb8a9" stroke="#ceb8a9" stroke-linecap="square" stroke-width=".36929" style="paint-order:markers fill stroke"/>
		<path d="m144.32 53.91c-0.14061 0.29874-0.28131 0.59749-0.39383 0.84645-0.11252 0.24895-0.19686 0.44811-0.30234 0.77531-0.10547 0.3272-0.23209 0.78242-0.33052 1.2377-0.0984 0.45524-0.16878 0.91047-0.18981 1.2946-0.0207 0.38409 7e-3 0.69707 0.028 1.0385 0.0207 0.34143 0.0352 0.71131 0.0425 1.0527 7e-3 0.34143 7e-3 0.65439 0.0632 0.86778 0.0559 0.21339 0.16878 0.3272 0.30234 0.4908 0.13366 0.1636 0.28835 0.37698 0.47122 0.51213 0.18287 0.13516 0.39383 0.19206 0.61183 0.26319 0.218 0.07114 0.44304 0.15649 0.77356 0.20628 0.33052 0.04977 0.76652 0.06409 1.1462 0.03557 0.37973-0.0284 0.70321-0.09955 0.94934-0.15647 0.24618-0.05693 0.41485-0.09955 0.58364-0.14226" fill="#ceb8a9" stroke="#ac8f7b" stroke-linecap="round" stroke-width=".29425" style="paint-order:markers fill stroke"/>
		<path d="m147.97 61.977c-0.0809 0.03482-0.24271 0.10446-0.45378 0.16015-0.21107 0.05573-0.47136 0.09745-0.72815 0.12535-0.2568 0.02781-0.51007 0.04183-0.78444 0.02442-0.27438-0.01741-0.56986-0.06614-0.79148-0.10446s-0.36937-0.06614-0.49248-0.10446-0.2216-0.08705-0.28493-0.20543c-0.0633-0.11839-0.0915-0.30639-0.11257-0.5536-0.0211-0.2472-0.0352-0.55359-0.0176-0.87739s0.0668-0.665 0.0914-0.9923c0.0246-0.32728 0.0246-0.64063 0.0387-0.8565s0.0422-0.33425 0.1196-0.54664c0.0774-0.21238 0.20403-0.51877 0.31659-0.75205 0.11256-0.23327 0.21106-0.39343 0.35529-0.58841 0.14422-0.19498 0.33418-0.42477 0.53469-0.58493 0.20052-0.16017 0.41156-0.25069 0.62615-0.35862 0.21458-0.10796 0.43267-0.23327 0.71408-0.29245 0.28141-0.05913 0.62615-0.05223 0.95329-0.0066 0.32715 0.04522 0.6367 0.12883 0.84777 0.20544 0.21105 0.07665 0.32362 0.14622 0.4397 0.21238 0.11607 0.06614 0.23569 0.12882 0.42916 0.27158 0.19348 0.14275 0.46082 0.36557 0.68594 0.62671 0.22514 0.26113 0.40806 0.56055 0.50656 0.72767s0.11259 0.20193 0.16185 0.2855c0.0492 0.08355 0.13368 0.21589 0.14073 0.29597 7e-3 0.08004-0.0634 0.10796-0.15128 0.14971-0.0879 0.04183-0.19346 0.09745-0.26736 0.14624-0.0739 0.04873-0.11604 0.09044-0.19696 0.12531-0.0809 0.03482-0.20052 0.06263-0.34825 0.10796-0.14774 0.04522-0.32363 0.10796-0.5171 0.25766-0.19348 0.14971-0.40454 0.38647-0.54172 0.58492-0.13719 0.19845-0.20051 0.35862-0.22163 0.55012-0.0211 0.1915-2e-5 0.41433 0.021 0.53272 0.0211 0.11839 0.0421 0.13232-0.0211 0.17411-0.0633 0.04183-0.21106 0.11142-0.35881 0.20195-0.14774 0.09055-0.29548 0.20194-0.3975 0.30988-0.102 0.10796-0.15828 0.21238-0.18996 0.30291-0.0316 0.09055-0.0387 0.16711-0.0387 0.23325-1e-5 0.06614 7e-3 0.12188 0.0111 0.14972 3e-3 0.02781 3e-3 0.0277-0.0773 0.06252z" fill="#f2d5c1" stroke="#f2d5c1" stroke-linecap="square" stroke-width=".2912" style="paint-order:markers fill stroke"/>
		<path d="m144.32 58.391c-0.0425 0.49791-0.0839 0.99578-0.12662 1.515-0.0425 0.51926-0.0839 1.0598-0.0632 1.4083 0.0207 0.34854 0.10547 0.50503 0.12662 0.64729 0.0207 0.14226-0.0207 0.27029-0.16174 0.36276-0.1406 0.0925-0.37974 0.14937-0.69617 0.2205-0.31642 0.07114-0.71025 0.15649-1.0056 0.19205-0.2954 0.03557-0.49226 0.02137-0.65399-0.05693-0.16174-0.07829-0.28835-0.22051-0.33052-0.39833-0.0425-0.17783 0-0.39122 0.0984-0.57616s0.25312-0.34142 0.37974-0.40544c0.12661-0.06397 0.22504-0.03557 0.29539 0.06397 0.0705 0.09955 0.11252 0.27029 0.10548 0.17782-7e-3 -0.0925-0.0632-0.44812-0.11958-0.74687-0.0559-0.29874-0.11251-0.54058-0.12661-0.7682-0.0145-0.22762 0.0145-0.441 0.0777-0.6544s0.16173-0.42678 0.23209-0.56905c0.0704-0.14226 0.11251-0.21338 0.19685-0.26318 0.0839-0.04977 0.21096-0.07829 0.30244-0.06397 0.0912 0.01421 0.14765 0.07114 0.20392 0.12804" fill="#ceb8a9" stroke="#ac8f7a" stroke-linecap="round" stroke-width=".29425" style="paint-order:markers fill stroke"/>
		<path d="m148.33 46.376c0.0694-0.1207 0.13925-0.2414 0.17904-0.39733 0.0404-0.15592 0.0508-0.34705 6e-3 -0.51304-0.0446-0.16598-0.14423-0.30684-0.28846-0.45772-0.14422-0.15088-0.33311-0.31187-0.58177-0.41745s-0.55691-0.15594-0.83045-0.1207c-0.27353 0.03524-0.51214 0.15592-0.726 0.36213s-0.40273 0.49794-0.50718 0.81983c-0.10444 0.3219-0.12433 0.67398-0.0943 0.92546 0.03 0.25148 0.10931 0.40232 0.19893 0.48286 0.0891 0.08041 0.18899 0.09048 0.20391 0.12073 0.0145 0.0302-0.0549 0.08041-0.20391 0.22128-0.14919 0.14085-0.37797 0.37221-0.5967 0.65889-0.21882 0.2867-0.4276 0.6287-0.61659 1.0462-0.18898 0.41746-0.35797 0.91037-0.52707 1.4032l-0.35859 1.358c-0.0798 0.23137-0.15915 0.46272-0.1293 0.69913 0.03 0.23639 0.16909 0.47781 0.34316 0.67397 0.17406 0.19616 0.38284 0.34704 0.63648 0.47781s0.55194 0.24147 0.85034 0.34705 0.59669 0.20626 0.89509 0.30681l5.251 0.33195c0.54696-0.11061 1.0939-0.2213 1.5266-0.35208 0.43258-0.13077 0.75087-0.28165 0.99958-0.46776 0.24867-0.1861 0.42761-0.4074 0.52209-0.66392 0.0943-0.25651 0.10445-0.54823 0.0798-0.73936-0.0249-0.19111-0.085-0.28167-0.0694-0.32693 0.0145-0.0453 0.10445-0.0453 0.19884-0.14585 0.0943-0.10055 0.19395-0.30178 0.21882-0.46778 0.0249-0.16598-0.0249-0.29673-0.11439-0.37722-0.0891-0.08053-0.21882-0.11073-0.23872-0.17102-0.0197-0.0604 0.0694-0.15092 0.10434-0.49797 0.0352-0.34705 0.0145-0.95064-0.0497-1.4435-0.0642-0.4929-0.17406-0.87515-0.28347-1.2574" fill="#ceb8a9" stroke="#ac8f7a" stroke-linecap="round" stroke-width=".29425" style="paint-order:markers fill stroke"/>
		<path d="m153.58 48.036c0.25851-0.15088 0.51713-0.30177 0.70114-0.43758s0.29332-0.25653 0.35808-0.41244c0.0642-0.15592 0.085-0.34704 0.0445-0.54823-0.0394-0.20118-0.13925-0.41244-0.27343-0.59853-0.13428-0.18609-0.30338-0.3471-0.53701-0.43758-0.23375-0.0906-0.53205-0.11073-0.77573-0.0906-0.2437 0.02014-0.43258 0.08041-0.61659 0.20118-0.18401 0.12072-0.36306 0.30178-0.46739 0.48788-0.10444 0.1861-0.13428 0.37716-0.29322 0.44773-0.41765-0.2514-0.66621-0.35194-0.83033-0.4224-0.16402-0.07046-0.2437-0.11073-0.30835-0.19115-0.0642-0.08041-0.11428-0.2012-0.14919-0.30679-0.0352-0.10558-0.0549-0.19607-0.0891-0.29673-0.0352-0.10066-0.085-0.21123-0.16412-0.27666-0.0798-0.06544-0.18899-0.085-0.28348-0.08054-0.0943 0.0057-0.17396 0.03512-0.23364 0.10558-0.0601 0.07046-0.0995 0.1811-0.10952 0.28668-0.01 0.1057 0.01 0.20678 0.01 0.21126 0 0.0044-0.0197-0.08556-0.0798-0.18613-0.0601-0.10054-0.15925-0.21132-0.23872-0.2716-0.0798-0.0604-0.13914-0.07036-0.19883-0.0101-0.0601 0.0604-0.11936 0.19111-0.16412 0.35207-0.0446 0.16095-0.0746 0.35208-0.03 0.48788s0.16411 0.21633 0.28347 0.29675l-0.79687 0.05268m0 0h-0.0425" fill="#ceb8a9" stroke="#ac8f7a" stroke-linecap="round" stroke-width=".29425" style="paint-order:markers fill stroke"/>
		<path d="m152 47.523c-0.0497-0.25149-0.0995-0.50294-0.10941-0.72426" fill="none" stroke="#ac8f7a" stroke-linecap="round" stroke-width=".29425" style="paint-order:markers fill stroke"/>
		<path d="m151.7 51.446c0.22877-0.13077 0.45744-0.26155 0.80558-0.35711 0.34802-0.09551 0.81552-0.15592 1.2083-0.17603 0.39278-0.02014 0.71107 2.2e-5 0.96472 0.05034 0.25364 0.05033 0.44253 0.13077 0.63151 0.21124" fill="none" stroke="#ac8f7a" stroke-linecap="round" stroke-width=".29425" style="paint-order:markers fill stroke">
			<animate attributeName="stroke" begin="1s" dur="2s" repeatCount="indefinite" values="#f2d5c1;#ac8f7a;#f2d5c1;#ac8f7a"/>
		</path>
		<path id="chanab_yamin_taht" d="m151.88 52.079c0.13925-0.05033 0.27851-0.10055 0.5768-0.11061 0.2984-0.0101 0.75584 0.02014 1.1736 0.0906 0.41766 0.07046 0.79563 0.18108 1.0592 0.28169 0.26359 0.10054 0.41268 0.19111 0.56188 0.28164" fill="none" stroke="#ac8f7a" stroke-linecap="round" stroke-width=".29425" style="paint-order:markers fill stroke">
			<animate attributeName="stroke" begin="1s" dur="2s" repeatCount="indefinite" values="#f2d5c1;#ac8f7a;#f2d5c1;#ac8f7a"/>
		</path>
		<path d="m149.16 46.798c-0.01 0.12072-0.0197 0.24142 0.01 0.32694 0.03 0.08556 0.0995 0.13578 0.20878 0.16595 0.10931 0.0302 0.25861 0.04026 0.36803 0.05034 0.10951 0.0101 0.17904 0.02014 0.24856 0.0302" fill="none" stroke="#ac8f7a" stroke-linecap="round" stroke-width=".29425" style="paint-order:markers fill stroke">
			<animate attributeName="stroke-width" begin="1s" dur="2s" repeatCount="indefinite" values="0.2; 0.25; 0.3; 0.4; 0.3; 0.25; 0.2"/>
		</path>
		<path d="m147.92 51.581c0.16412-0.0755 0.49225-0.22633 0.69616-0.35209 0.20391-0.12574 0.28348-0.22632 0.25851-0.31686-0.0249-0.0906-0.15417-0.17101-0.33311-0.23136-0.17905-0.0604-0.40771-0.10055-0.5967-0.12072-0.18899-0.02014-0.33818-0.02014-0.45257-0.02014s-0.19396 0-0.25354 0.04026c-0.0601 0.04026-0.0995 0.12075-0.10455 0.22637-4e-3 0.10558 0.0249 0.23639 0.13428 0.38225 0.10942 0.14585 0.2983 0.3068 0.39279 0.38727 0.0943 0.08054 0.0943 0.08054 0.25861 0.0057z" fill="none" stroke="#ac8f7a" stroke-linecap="round" stroke-width=".29425" style="paint-order:markers fill stroke">
			<animate attributeName="stroke-width" begin="1s" dur="2s" repeatCount="indefinite" values="0.2; 0.25; 0.3; 0.4; 0.3; 0.25; 0.2"/>
		</path>
		<path d="m149.61 51.959c-0.0497 0.07046-0.0995 0.14078-0.17904 0.21625-0.0798 0.0755-0.18899 0.15598-0.34813 0.18614-0.15904 0.0302-0.36792 0.0101-0.53702-0.0101-0.16909-0.02014-0.2984-0.04026-0.4276-0.0906-0.1293-0.05034-0.2585-0.13076-0.32316-0.23639-0.0642-0.10558-0.0642-0.2364-0.1293-0.21628-0.0642 0.02014-0.19396 0.19113-0.31829 0.28167-0.12434 0.09048-0.2437 0.10055-0.3729 0.10558-0.1293 0.0044-0.26856 0.0044-0.40781-0.0151-0.13925-0.02014-0.27851-0.0604-0.373-0.10558-0.0943-0.0453-0.14412-0.09551-0.19385-0.14584" fill="none" stroke="#ac8f7a" stroke-linecap="round" stroke-width=".29425" style="paint-order:markers fill stroke"/>
		<path d="m146.82 52.149c0.0697 0.0056 0.20885 0.0151 0.33317-0.0151 0.12431-0.0302 0.23371-0.10055 0.32321-0.1861 0.0895-0.08545 0.15913-0.1861 0.20887-0.17603 0.0498 0.01007 0.0796 0.13076 0.15418 0.23135 0.0745 0.10055 0.19396 0.18109 0.31827 0.21628 0.12432 0.03523 0.25361 0.02517 0.31825 0.02517 0.0647 0 0.0647 0.01007 0.0597 0.166-4e-3 0.15593-0.0149 0.45771-0.0398 0.64383-0.0249 0.18613-0.0647 0.25653-0.19394 0.28165-0.12928 0.02517-0.34807 0.0045-0.57186-0.0151-0.22377-0.02013-0.4525-0.04027-0.59673-0.0604s-0.20386-0.04027-0.25857-0.0755c-0.0547-0.03523-0.10439-0.08545-0.12427-0.18104-0.0199-0.09563-0.01-0.23643-6e-3 -0.38732 4e-3 -0.1509 4e-3 -0.31185 4e-3 -0.39233 0-0.08053-5e-5 -0.08042 0.0696-0.07539z" fill="#fefefe" stroke="#ac8f7a" stroke-linecap="square" stroke-width=".29425" style="paint-order:markers fill stroke">
			<animate attributeName="stroke-width" begin="1s" dur="2s" repeatCount="indefinite" values="0.2; 0.25; 0.3; 0.4; 0.3; 0.25; 0.2"/>
		</path>
		<path d="m147.64 51.928c-0.0197 0.19113-0.0394 0.38227-0.0394 0.55326 0 0.17102 0.0197 0.3219 0.0394 0.47279" fill="none" stroke="#ac8f7a" stroke-linecap="round" stroke-width=".29425" style="paint-order:markers fill stroke">
			<animate attributeName="stroke-width" begin="1s" dur="2s" repeatCount="indefinite" values="0.2; 0.25; 0.3; 0.4; 0.3; 0.25; 0.2"/>
		</path>
		<path id="asnan" d="m146.8 52.351c-0.0197 0.15089-0.0394 0.30177-0.0446 0.42751-6e-3 0.12572 4e-3 0.22636 0.0394 0.30182 0.0352 0.0755 0.0943 0.12571 0.22381 0.16093 0.1293 0.03522 0.32823 0.05536 0.52707 0.07046 0.19893 0.0151 0.39776 0.02516 0.52209 0.0302 0.12433 0.0057 0.17396 0.0057 0.22877-0.02516 0.0549-0.0302 0.11439-0.09048 0.14423-0.1911 0.03-0.10055 0.03-0.24142 0.03-0.38728v-0.44764" fill="none" stroke="#ac8f7a" stroke-linecap="round" stroke-width=".29425" style="paint-order:markers fill stroke">
			<animate attributeName="stroke-width" begin="1s" dur="2s" repeatCount="indefinite" values="0.2; 0.25; 0.3; 0.4; 0.3; 0.25; 0.2"/>
		</path>
		<path d="m152.74 47.282c-0.0798-0.04026-0.15915-0.08041-0.20391-0.18106-0.0446-0.10066-0.0549-0.26155-0.0497-0.37725 6e-3 -0.11571 0.0249-0.18608 0.0549-0.24645 0.03-0.0604 0.0694-0.11061 0.11936-0.08545 0.0497 0.02516 0.10931 0.12575 0.14423 0.2012 0.0352 0.0755 0.0446 0.12568 0.0642 0.09551 0.0197-0.03008 0.0497-0.14084 0.11429-0.19614 0.0642-0.05536 0.16412-0.05536 0.23872-0.04026s0.12433 0.04518 0.18401 0.04015c0.0601-0.0057 0.1292-0.04518 0.19385-0.0151 0.0642 0.0302 0.12434 0.13076 0.18401 0.23136" fill="none" stroke="#ac8f7a" stroke-linecap="round" stroke-width=".29425" style="paint-order:markers fill stroke">
			<animate attributeName="stroke-width" begin="1s" dur="4s" repeatCount="indefinite" vvalues="0.2; 0.25; 0.3; 0.4; 0.3; 0.25; 0.2"/>
			<animate attributeName="stroke" begin="1s" dur="4s" repeatCount="indefinite" values="#f2d5c1;#ac8f7a;#f2d5c1;#ac8f7a"/>
		</path>
		<path d="m147.46 45.471c-0.0995-0.05033-0.19893-0.10056-0.27851-0.12069-0.0798-0.02014-0.13925-0.0101-0.17406 0.0453-0.0352 0.05536-0.0446 0.15595-0.0798 0.19115-0.0352 0.03524-0.0943 0.0057-0.15915-0.02014-0.0642-0.02516-0.13418-0.0453-0.18391 0.0044-0.0497 0.05034-0.0798 0.17102-0.0995 0.2515-0.0197 0.08041-0.03 0.12074-0.0891 0.11568-0.0601-0.0057-0.1691-0.05536-0.2437-0.0755s-0.11439-0.0101-0.13925 0.05536c-0.0249 0.06544-0.0352 0.1861-0.0249 0.31686 0.01 0.13079 0.0394 0.27161 0.0694 0.41244" fill="none" stroke="#ac8f7a" stroke-linecap="round" stroke-width=".29425" style="paint-order:markers fill stroke">
			<animate attributeName="stroke-width" begin="1s" dur="4s" repeatCount="indefinite" values="0.2; 0.25; 0.3; 0.4; 0.3; 0.25; 0.2"/>
			<animate attributeName="stroke" begin="1s" dur="4s" repeatCount="indefinite" values="#f2d5c1;#ac8f7a;#f2d5c1;#ac8f7a"/>
		</path>
		<path d="m149.77 48.776c0.0995-0.0453 0.2983-0.13579 0.48231-0.16094 0.18401-0.02516 0.3531 0.0151 0.46738 0.08545 0.11439 0.07046 0.17407 0.17102 0.22877 0.31687 0.0549 0.14587 0.10433 0.33698 0.11936 0.5281 0.0145 0.19114-6e-3 0.38226-0.0549 0.57843-0.0497 0.19617-0.12931 0.39734-0.21883 0.53313-0.0891 0.13579-0.18899 0.20621-0.32327 0.2565-0.13428 0.05034-0.30326 0.08041-0.46241 0.07035-0.15915-0.0101-0.30825-0.0604-0.42264-0.15592-0.11439-0.09563-0.19395-0.23639-0.24369-0.4426-0.0497-0.20623-0.0694-0.47782-0.0446-0.70417 0.0249-0.22633 0.0943-0.40739 0.16411-0.54321 0.0694-0.13584 0.13915-0.22632 0.17397-0.27158 0.0352-0.0453 0.0352-0.04518 0.13438-0.09048z" fill="#ac8f7a" stroke="#ac8f7a" stroke-linecap="round" stroke-width=".29425" style="paint-order:markers fill stroke"/>
		<path d="m145.99 48.34c0.10423-0.03232 0.31281-0.09697 0.49847-0.09854 0.18567-0.0011 0.34845 0.05973 0.4531 0.14405 0.10475 0.08433 0.15147 0.19173 0.18774 0.34337 0.0363 0.15165 0.0622 0.34756 0.0528 0.53906-9e-3 0.19152-0.0518 0.37862-0.12588 0.56694-0.0736 0.18832-0.17748 0.37783-0.28307 0.50121-0.10557 0.12339-0.21302 0.18064-0.35248 0.21353-0.13947 0.03288-0.31095 0.04138-0.4675 0.01114-0.15666-0.0302-0.2984-0.09899-0.40005-0.20828-0.10154-0.10927-0.16308-0.25909-0.18691-0.47-0.0238-0.21089-0.01-0.48286 0.0425-0.70428 0.0528-0.22141 0.14423-0.3922 0.23013-0.51814 0.086-0.12594 0.16619-0.20689 0.20629-0.24738 0.0404-0.04048 0.0404-0.04037 0.14453-0.0727z" fill="#ac8f7a" stroke="#ac8f7a" stroke-linecap="round" stroke-width=".29425" style="paint-order:markers fill stroke"/>
		<path d="m150.08 49.018c0.0207-0.02069 0.0611-0.06207 0.10651-0.0869 0.0456-0.02483 0.0943-0.03322 0.13521-0.01655 0.0414 0.01655 0.0736 0.05794 0.0487 0.09529s-0.10662 0.07046-0.16806 0.07461c-0.0611 0.0034-0.10257-0.02069-0.12288-0.03311-0.0207-0.01241-0.0207-0.01241 1e-5 -0.03322z" fill="#fffdfd" stroke="#fff" stroke-linecap="round" stroke-width=".2424" style="paint-order:markers fill stroke"/>
		<path id="bariq_yamin_taht" d="m149.7 49.471c0.0124-0.02427 0.0383-0.0727 0.0642-0.07751 0.0259-0.0057 0.0508 0.03389 0.0591 0.09205 8e-3 0.05816-2e-3 0.13578-0.0176 0.20853-0.0155 0.07281-0.0363 0.1406-0.0487 0.20849-0.0124 0.068-0.0176 0.13572-0.0311 0.1745-0.0124 0.03881-0.0332 0.04855-0.0508 0.02909-0.0176-0.01935-0.0332-0.0679-0.0404-0.14541-8e-3 -0.07752-8e-3 -0.18426 2e-3 -0.26669s0.0311-0.1406 0.0404-0.1697c0.01-0.02909 0.01-0.02909 0.0228-0.05346z" fill="#fffdfd" stroke="#fff" stroke-linecap="round" stroke-width=".20719" style="paint-order:markers fill stroke">
			<animate attributeName="stroke-width" begin="1s" dur="2s" repeatCount="indefinite" values="0.2; 0.25; 0.3; 0.4; 0.3; 0.25; 0.2"/>
		</path>
		<path d="m146.06 48.677c0.0228-0.0101 0.0674-0.02941 0.10392-0.03748 0.0373-0.0079 0.0663-0.0044 0.0891 0.0022 0.0238 0.0067 0.0425 0.01778 0.0466 0.03199 4e-3 0.01421-7e-3 0.03199-0.0269 0.04631-0.0197 0.01421-0.0487 0.02494-0.0787 0.032-0.03 0.0067-0.0622 0.01114-0.087 0.0101-0.0249-0.0011-0.0435-0.0067-0.0591-0.01163-0.0155-0.0057-0.029-0.01114-0.03-0.02137-1e-3 -0.01114 9e-3 -0.02673 0.0145-0.03467 4e-3 -0.0079 4e-3 -0.0079 0.028-0.0179z" fill="none" stroke="#fff" stroke-linecap="round" stroke-width=".18014" style="paint-order:markers fill stroke"/>
		<path id="bariq_yassar_taht" d="m145.82 49.108c0.0166-0.02181 0.0497-0.06531 0.0756-0.06566 0.0259-0.0011 0.0446 0.04206 0.0425 0.10066-2e-3 0.05872-0.0249 0.13353-0.0518 0.20263-0.0269 0.06923-0.058 0.13264-0.0819 0.19743-0.0238 0.06487-0.0404 0.13082-0.0591 0.16692-0.0186 0.03612-0.0404 0.04228-0.0549 0.02002-0.0145-0.02203-0.0218-0.07248-0.0166-0.15025 6e-3 -0.07774 0.0228-0.18301 0.0456-0.26262 0.0238-0.07964 0.0539-0.1335 0.0684-0.16048 0.0145-0.02695 0.0145-0.02695 0.0311-0.04887z" fill="#fffdfd" stroke="#fff" stroke-linecap="round" stroke-width=".20719" style="paint-order:markers fill stroke">
			<animate attributeName="stroke-width" begin="1s" dur="2s" repeatCount="indefinite" values="0.2; 0.25; 0.3; 0.4; 0.3; 0.25; 0.2"/>
		</path>
		<path d="m143.68 51.635c0.0298-0.22131 0.0597-0.44262 0.1094-0.64382 0.0497-0.20118 0.11935-0.38226 0.18896-0.56332" fill="#ac8f7a" stroke="#fafafa" stroke-linecap="square" stroke-width=".29425" style="paint-order:markers fill stroke"/>
		<path id="chanab_yassar_taht" d="m143.82 51.175c-0.1492 0.0101-0.2984 0.02014-0.45744 0.02014-0.15915 0-0.32814-0.0101-0.50718-0.0057-0.17904 0.0057-0.36792 0.02516-0.55691 0.0453" fill="none" stroke="#ac8f7a" stroke-linecap="round" stroke-width=".29425" style="paint-order:markers fill stroke">
			<animate attributeName="stroke" begin="1s" dur="2s" repeatCount="indefinite" values="#f2d5c1;#ac8f7a;#f2d5c1;#ac8f7a"/>
		</path>
		<path id="chanab_yassar_fawq" d="m143.94 50.812c-0.1293-0.10055-0.25861-0.2012-0.39278-0.27161-0.13429-0.07046-0.27354-0.11061-0.41268-0.13581-0.13925-0.02516-0.27851-0.03524-0.38284-0.03524-0.10445 0-0.17407 0.0101-0.2437 0.02014" fill="none" stroke="#ac8f7a" stroke-linecap="round" stroke-width=".29425" style="paint-order:markers fill stroke">
			<animate attributeName="stroke" begin="1s" dur="2s" repeatCount="indefinite" values="#f2d5c1;#ac8f7a;#f2d5c1;#ac8f7a"/>
		</path>
		<path d="m146.41 54.35c1.5933 0.13904 3.1865 0.27808 4.7798 0.41712" fill="#ac8f7a" stroke="#ceb8a9" stroke-linecap="square" stroke-width=".40066" style="paint-order:markers fill stroke"/>
		<path d="m153.96 53.902c0.18287 0.52636 0.42532 1.4451 0.57307 1.8861 0.14764 0.44102 0.26016 0.79666 0.33051 1.387 0.0705 0.59039 0.0984 1.4155 0.0425 2.013s-0.19686 0.96732-0.52749 1.323c-0.33052 0.35566-0.85086 0.69706-1.2095 0.8749-0.35871 0.17783-0.55557 0.19207-0.77357 0.29878s-0.45713 0.30587-0.78765 0.46947-0.75242 0.29163-1.1322 0.39121c-0.37973 0.09955-0.7173 0.17072-0.99856 0.22051-0.2813 0.04977-0.50634 0.07829-0.69616 0.01421-0.18993-0.06397-0.34461-0.22051-0.45009-0.4339s-0.16174-0.48369-0.0912-0.71131c0.0705-0.22761 0.26721-0.41255 0.56965-0.56192s0.71026-0.26318 0.82983-0.29162c0.11957-0.0284-0.0487 0.0284-0.17583 0.02137-0.12661-0.0067-0.21095-0.07829-0.25312-0.22763-0.0425-0.14937-0.0425-0.37698 0-0.57615 0.0425-0.19916 0.12662-0.36986 0.25312-0.55481 0.12662-0.18494 0.2954-0.3841 0.49226-0.51214 0.19685-0.12803 0.4219-0.18494 0.64694-0.24185" fill="#ceb8a9" stroke="#ac8f7a" stroke-linecap="round" stroke-width=".26548" style="paint-order:markers fill stroke"/>
		<g id="yad_yamin" transform="matrix(1.1058,0,0,1.1185,35.164,-139.55)" stroke="#ac8f7a" stroke-linecap="round">
			<path d="m105.67 174.69c-0.1249 0.33632-0.24979 0.67265-0.36334 0.8756-0.11355 0.20296-0.21574 0.27255-0.36904 0.37112-0.15328 0.0985-0.35766 0.22615-0.48257 0.23775-0.1249 0.0116-0.17032-0.0928-0.24411-0.18555-0.0739-0.0928-0.176-0.17396-0.28387-0.24935-0.10787-0.0754-0.22142-0.14496-0.32362-0.16236-0.10219-0.0174-0.19302 0.0174-0.23276-0.0406-0.0397-0.058-0.0283-0.20873 5e-3 -0.36531 0.0341-0.15657 0.0909-0.31893 0.176-0.49288 0.0851-0.17397 0.1987-0.35954 0.31225-0.45811 0.11355-0.0985 0.22708-0.11019 0.30657-0.18559 0.0794-0.0754 0.0709-0.26851 0.11637-0.40768" fill="#ceb8a9" stroke-width=".23871" style="paint-order:markers fill stroke"/>
			<path d="m104.44 176.29c-0.0636 0.10175-0.12719 0.20351-0.22259 0.22259-0.0954 0.0191-0.22258-0.0445-0.27981-0.0445-0.0572 0-0.0445 0.0636-0.1208 0.1717-0.0763 0.10812-0.24166 0.26075-0.33705 0.27983-0.0954 0.0191-0.12082-0.0954-0.13353-0.20987-0.0127-0.11447-0.0127-0.22894-0.07-0.27346-0.0572-0.0445-0.17172-0.0191-0.2544-6e-3 -0.0827 0.0127-0.13354 0.0127-0.12082-0.0445 0.0127-0.0572 0.089-0.17171 0.0954-0.25439 6e-3 -0.0827-0.0572-0.13354-0.14627-0.17806-0.089-0.0445-0.2035-0.0827-0.19713-0.12719 6e-3 -0.0445 0.13354-0.0954 0.25437-0.15263 0.12083-0.0572 0.23531-0.12084 0.34978-0.18443" fill="#f2d5c1" stroke-width=".26458" style="paint-order:markers fill stroke"/>
		</g>
		<g transform="matrix(1.1058,0,0,1.1185,35.164,-139.55)" stroke="#ac8f7a" stroke-linecap="round" stroke-width=".26458">
			<path d="m99.972 173.81c0.11447 0.15263 0.22894 0.30526 0.29254 0.52784 0.0636 0.22259 0.0763 0.51512 0.0763 0.75678 0 0.24167-0.0127 0.43246-0.0255 0.55965-0.0127 0.12719-0.0254 0.19078-0.0636 0.1717-0.0382-0.0191-0.10174-0.12083-0.22258-0.17807-0.12083-0.0572-0.29889-0.07-0.4388-0.0636-0.13991 6e-3 -0.24168 0.0318-0.34343 0.0763s-0.2035 0.10811-0.26073 0.18441c-0.05724 0.0763-0.06996 0.16536-0.13356 0.13356s-0.17807-0.18442-0.24166-0.40065c-0.0636-0.21623-0.07632-0.49604-0.03816-0.78222 0.03816-0.28619 0.12719-0.57872 0.21622-0.87126" fill="#ceb8a9" style="paint-order:markers fill stroke"/>
			<path d="m100.01 175.87c0.11447 0.0763 0.22895 0.15263 0.30526 0.24167 0.0763 0.089 0.11447 0.19078 0.10811 0.32434-6e-3 0.13356-0.0572 0.29889-0.10175 0.32433-0.0445 0.0255-0.0827-0.089-0.14626-0.17806-0.0636-0.089-0.15263-0.15263-0.19715-0.1272-0.04452 0.0254-0.04452 0.13991-0.04452 0.2671s0 0.2671-0.02544 0.30526c-0.02544 0.0382-0.07631-0.0254-0.15263-0.11447-0.07632-0.089-0.17807-0.20351-0.24168-0.27348-0.06361-0.07-0.08904-0.0954-0.1081-0.0191-0.01907 0.0763-0.03179 0.25439-0.06995 0.31163-0.03816 0.0572-0.10175-6e-3 -0.17171-0.10176-0.06996-0.0954-0.14627-0.22258-0.20351-0.34977s-0.09539-0.25438-0.13355-0.38157" fill="#f2d5c1" style="paint-order:markers fill stroke"/>
		</g>
		<path d="m151.45 57.964c-0.0839-0.18493-0.16879-0.36988-0.25312-0.55481" fill="none" stroke="#ac8f7a" stroke-linecap="round" stroke-width=".29425" style="paint-order:markers fill stroke"/>
		<path d="m149.38 55.659c-0.19685-0.1138-0.39382-0.22762-0.63285-0.31297-0.23914-0.08534-0.52033-0.14226-0.80174-0.17071-0.2813-0.0284-0.56261-0.0284-0.81573 0.02137s-0.47817 0.14937-0.61887 0.26319c-0.14071 0.11382-0.19686 0.24184-0.25322 0.36988" fill="none" stroke="#ac8f7a" stroke-linecap="round" stroke-width=".29425" style="paint-order:markers fill stroke"/>
		<g transform="matrix(1.1058,0,0,1.1185,35.015,-139.7)" opacity="0" stroke="#ac8f7a" stroke-linecap="round" stroke-width=".26458">
			<path d="m108.6 177.54c0.12083-0.0445 0.3625-0.13355 0.56601-0.24167 0.20351-0.10811 0.36885-0.2353 0.50877-0.35613 0.13991-0.12084 0.25438-0.23531 0.36249-0.37522s0.20987-0.30526 0.26074-0.45789c0.0509-0.15263 0.0509-0.29254 0.0827-0.48333 0.0318-0.19078 0.0954-0.43244 0.11447-0.69319 0.0191-0.26075-6e-3 -0.54055 0.0382-0.94757 0.0445-0.40702 0.15899-0.94121 0.30526-1.3673 0.14628-0.42609 0.32434-0.74406 0.51513-0.99208 0.19079-0.24803 0.39429-0.42609 0.62323-0.55964s0.48333-0.22259 0.69319-0.26074c0.20987-0.0382 0.37521-0.0254 0.566 0.0191s0.40702 0.12084 0.62961 0.28619c0.22258 0.16535 0.45152 0.41973 0.60415 0.64231 0.15262 0.22258 0.22894 0.41337 0.33705 0.68048 0.10811 0.2671 0.24802 0.61051 0.2671 1.0239 0.0191 0.41337-0.0827 0.89669-0.24166 1.3546-0.15899 0.45789-0.37521 0.89033-0.71228 1.2656-0.33706 0.37522-0.79493 0.69318-1.2846 1.0302s-1.0112 0.6932-1.5327 0.94122c-0.52148 0.24802-1.043 0.38793-1.4945 0.45152-0.45153 0.0636-0.8331 0.0508-1.1129 0.0826-0.27981 0.0318-0.45788 0.10811-0.48968 0.0254-0.0318-0.0827 0.0827-0.32434 0.15262-0.52148 0.0699-0.19714 0.0954-0.34979 0.1081-0.4261 0.0127-0.0763 0.0127-0.0763 0.13355-0.12082z" fill="#f2d5c1" style="paint-order:markers fill stroke"/>
			<path d="m114.59 172.13c-1.1193-0.0127-2.2386-0.0255-3.3578-0.0382" fill="none" style="paint-order:markers fill stroke"/>
			<path d="m115.08 173.43c-1.4754 0.10175-2.9508 0.20351-4.4262 0.30526" fill="none" style="paint-order:markers fill stroke"/>
			<path d="m113.17 170.98c0.27982 0.39429 0.55964 0.78858 0.87126 1.2656s0.65503 1.0366 0.99845 1.5962" fill="none" style="paint-order:markers fill stroke"/>
			<path d="m114.89 174.8c-1.0048 0.0382-2.0096 0.0763-2.7473 0.11447-0.73771 0.0382-1.2083 0.0763-1.6789 0.11447" fill="none" style="paint-order:markers fill stroke"/>
			<path d="m114.17 176.06c-0.62324 0.0382-1.2465 0.0763-1.8824 0.10811-0.63597 0.0318-1.2846 0.0572-1.9333 0.0827" fill="none" style="paint-order:markers fill stroke"/>
			<path d="m111.8 177.7c-0.35614-0.12719-0.71228-0.25438-1.1129-0.31798-0.40066-0.0636-0.84582-0.0636-1.291-0.0636" fill="none" style="paint-order:markers fill stroke"/>
			<path d="m110.47 178.31c-0.34342-0.10175-0.68683-0.20351-0.99845-0.27346-0.31163-0.07-0.59144-0.10811-0.87126-0.14627" fill="none" style="paint-order:markers fill stroke"/>
			<path d="m112.22 170.98c0.38157 0.48332 0.76315 0.96665 1.202 1.6026s0.93485 1.4245 1.4309 2.2131" fill="none" style="paint-order:markers fill stroke"/>
			<path d="m111.76 171.48c0.90306 1.3737 1.8061 2.7473 2.7092 4.121" fill="none" style="paint-order:markers fill stroke"/>
			<path d="m111.27 171.9c0.95394 1.4373 1.9079 2.8745 2.8618 4.3118" fill="none" style="paint-order:markers fill stroke"/>
			<path d="m110.85 172.7c0.55964 0.80131 1.1193 1.6026 1.5454 2.2831 0.4261 0.68048 0.71863 1.2401 1.0112 1.7998" fill="none" style="paint-order:markers fill stroke"/>
			<path d="m110.62 173.81c0.25438 0.31797 0.50876 0.63595 0.69955 0.90942 0.19079 0.27346 0.31798 0.5024 0.52785 0.90941 0.20986 0.40702 0.5024 0.99209 0.79494 1.5772" fill="none" style="paint-order:markers fill stroke"/>
			<path d="m111.88 177.55c-0.20351-0.41973-0.40701-0.83946-0.61688-1.2783s-0.42609-0.89669-0.64231-1.3546" fill="none" style="paint-order:markers fill stroke"/>
			<path d="m111.04 178.16c-0.10175-0.40701-0.20351-0.81402-0.29254-1.1129-0.089-0.29889-0.16535-0.48969-0.24166-0.68047" fill="none" style="paint-order:markers fill stroke"/>
			<path d="m110.2 178.46c-0.0636-0.34342-0.12719-0.68683-0.15899-0.94757-0.0318-0.26075-0.0318-0.43881-0.0318-0.61688" fill="none" style="paint-order:markers fill stroke"/>
			<path d="m109.44 178.58c-0.0509-0.29254-0.10175-0.58508-0.13356-0.81402-0.0318-0.22895-0.0445-0.39428-0.0573-0.55964" fill="none" style="paint-order:markers fill stroke"/>
			<path d="m108.82 178.58c0.0127-0.25438 0.0255-0.50876 0.0191-0.6741-6e-3 -0.16534-0.0318-0.24169-0.0572-0.31799" fill="none" style="paint-order:markers fill stroke"/>
			<animate attributeName="opacity" begin="0s" dur="1s" repeatCount="indefinite" values="0;0;0;0;1;0;0;0;0;1"/>
		</g>
	</g>
</svg>
